<?xml version="1.0" encoding="UTF-8" standalone="no"?>
<!-- Created with Inkscape (http://www.inkscape.org/) -->

<svg
   xmlns:dc="http://purl.org/dc/elements/1.1/"
   xmlns:cc="http://creativecommons.org/ns#"
   xmlns:rdf="http://www.w3.org/1999/02/22-rdf-syntax-ns#"
   xmlns:svg="http://www.w3.org/2000/svg"
   xmlns="http://www.w3.org/2000/svg"
   xmlns:sodipodi="http://sodipodi.sourceforge.net/DTD/sodipodi-0.dtd"
   xmlns:inkscape="http://www.inkscape.org/namespaces/inkscape"
   version="1.1"
   id="svg1456"
   xml:space="preserve"
   width="816"
   height="1056"
   viewBox="0 0 816 1056"
   sodipodi:docname="debt-money-word-cloud.svg"
   inkscape:version="0.92.4 (5da689c313, 2019-01-14)"><metadata
     id="metadata1462"><rdf:RDF><cc:Work
         rdf:about=""><dc:format>image/svg+xml</dc:format><dc:type
           rdf:resource="http://purl.org/dc/dcmitype/StillImage" /><dc:title></dc:title></cc:Work></rdf:RDF></metadata><defs
     id="defs1460"><clipPath
       clipPathUnits="userSpaceOnUse"
       id="clipPath1472"><path
         d="M 0,792 H 612 V 0 H 0 Z"
         id="path1470"
         inkscape:connector-curvature="0" /></clipPath><clipPath
       clipPathUnits="userSpaceOnUse"
       id="clipPath1480"><path
         d="M 354.697,461.134 H 221.344 v 297.751 h 133.351 z"
         id="path1478"
         inkscape:connector-curvature="0" /></clipPath></defs><sodipodi:namedview
     pagecolor="#ffffff"
     bordercolor="#666666"
     borderopacity="1"
     objecttolerance="10"
     gridtolerance="10"
     guidetolerance="10"
     inkscape:pageopacity="0"
     inkscape:pageshadow="2"
     inkscape:window-width="1920"
     inkscape:window-height="1018"
     id="namedview1458"
     showgrid="false"
     inkscape:zoom="0.67045455"
     inkscape:cx="396"
     inkscape:cy="588.40678"
     inkscape:window-x="-8"
     inkscape:window-y="-8"
     inkscape:window-maximized="1"
     inkscape:current-layer="g1464" /><g
     id="g1464"
     inkscape:groupmode="layer"
     inkscape:label="finance-word-cloud-publicdomainvectors.org"
     transform="matrix(1.3333333,0,0,-1.3333333,0,1056)"><g
       id="g1466"><g
         id="g1468"
         clip-path="url(#clipPath1472)"><g
           id="g1474"><g
             id="g1476"
             clip-path="url(#clipPath1480)"><path
               d="m 354.695,758.885 v -63.008 l -20.958,-13.231 h -89.469 l -22.793,14.279 v 61.96 z M 247.149,725.351 v -7.86 l 1.048,-1.048 h 81.873 l 0.785,1.048 v 7.86 z m 31.439,-83.313 h -27.639 v -21.876 h -29.474 v 53.708 h 133.22 l 0.002,-53.708 h -27.509 v 21.876 h -25.806 v -21.876 h -22.794 z m 76.109,-30.653 v -65.76 l -13.362,-8.514 h -39.953 l -9.563,6.681 h -1.965 l -9.3,-6.681 H 236.67 l -15.195,9.562 v 64.712 z m -74.143,-31.832 h -33.405 v -7.99 l 1.048,-0.787 h 31.309 l 1.048,0.787 z m 20.828,0 v -7.99 l 1.048,-0.787 h 27.64 l 0.785,0.787 v 7.99 z m 25.806,-68.51 v 17.16 h 27.509 v -67.069 h -27.509 v 17.16 H 221.475 v 32.749 z"
               style="fill:#560835;fill-opacity:1;fill-rule:nonzero;stroke:none"
               id="path1482"
               inkscape:connector-curvature="0" /></g></g><path
           d="m 103.972,473.447 3.014,-48.599 0.523,-0.524 0.656,0.524 3.012,48.599 h 26.199 v -76.108 h -16.374 v 44.67 l -0.656,0.655 -0.523,-0.655 -5.633,-44.67 h -13.362 l -5.633,44.67 -0.523,0.655 -0.525,-0.655 v -44.67 H 77.643 v 76.108 z m 38.513,-7.597 4.978,7.597 h 32.618 l 4.846,-7.597 v -59.864 l -5.371,-8.647 h -31.569 l -5.502,8.647 z m 18.732,-53.315 0.524,-0.524 h 4.061 l 0.524,0.524 V 459.3 l -0.524,0.524 h -4.061 l -0.524,-0.524 z m 55.542,60.912 5.37,-49.384 0.394,-0.524 0.523,0.524 v 49.384 h 14.934 v -76.108 h -26.592 l -5.37,49.255 -0.525,0.524 -0.523,-0.524 v -49.255 h -14.933 v 76.108 z m 44.407,-43.489 v -15.851 h 12.576 v -16.768 h -30.784 v 76.108 h 30.784 v -15.718 h -12.576 v -14.804 h 12.576 v -12.967 z m 35.631,43.489 v -15.718 l 2.096,-19.912 0.392,-0.394 0.262,0.394 2.227,19.912 v 15.718 h 18.209 v -8.776 L 309.241,418.43 v -21.091 h -19.649 v 21.091 l -10.873,46.241 v 8.776 z"
           style="fill:#740852;fill-opacity:1;fill-rule:nonzero;stroke:none"
           id="path1484"
           inkscape:connector-curvature="0" /><path
           d="m 389.41,513.139 v -18.993 h -31.963 v 85.669 h 20.959 v -66.676 z m 5.764,58.162 5.502,8.514 h 36.809 l 5.502,-8.514 V 503.97 l -6.156,-9.824 h -35.5 l -6.157,9.824 z m 20.96,-59.996 0.654,-0.655 h 4.454 l 0.654,0.655 v 52.66 l -0.654,0.524 h -4.454 l -0.654,-0.524 z m 79.12,-17.159 h -20.435 v 16.504 h -5.632 V 494.146 H 448.62 v 31.176 l 12.969,54.493 h 20.828 l 12.837,-54.493 z m -26.067,29.342 h 5.632 v 8.646 l -2.489,22.399 -0.392,0.394 -0.262,-0.394 -2.489,-22.399 z m 61.829,56.327 5.894,-55.541 0.524,-0.524 0.655,0.524 v 55.541 h 16.768 v -85.669 h -29.998 l -5.895,55.541 -0.654,0.523 -0.656,-0.523 v -55.541 h -16.767 v 85.669 z"
           style="fill:#7f0757;fill-opacity:1;fill-rule:nonzero;stroke:none"
           id="path1486"
           inkscape:connector-curvature="0" /><path
           d="m 363.211,671.119 h 37.465 l 4.977,-7.598 v -22.793 l -3.798,-5.502 v -1.048 l 3.798,-5.371 v -25.151 l -5.502,-8.645 h -36.94 z m 18.208,-42.312 v -19.124 h 4.454 l 0.524,0.654 v 17.816 l -0.524,0.654 z m 0,11.921 h 4.454 l 0.524,0.524 v 15.85 l -0.524,0.394 h -4.454 z m 29.344,22.793 4.846,7.598 h 32.618 l 4.977,-7.598 10e-4,-59.865 -5.502,-8.645 h -31.438 l -5.502,8.645 z m 18.601,-53.184 0.655,-0.654 h 3.929 l 0.525,0.654 -0.001,46.765 -0.524,0.394 h -3.93 l -0.655,-0.394 z m 55.672,60.782 5.24,-49.254 0.524,-0.656 0.524,0.656 -0.001,49.254 h 14.804 v -76.108 h -26.592 l -5.24,49.254 -0.524,0.525 -0.656,-0.525 v -49.254 h -14.802 v 76.108 z m 26.199,0 h 35.894 l 7.596,-11.921 V 608.11 l -8.121,-13.099 h -35.368 z m 19.125,-61.436 h 4.453 l 0.656,0.654 v 46.765 l -0.656,0.394 h -4.453 z"
           style="fill:#7d7b7b;fill-opacity:1;fill-rule:nonzero;stroke:none"
           id="path1488"
           inkscape:connector-curvature="0" /><path
           d="m 194.883,317.432 h 42.311 l 5.502,-8.645 v -25.674 l -4.323,-6.158 v -1.18 l 4.323,-6.025 v -28.295 l -6.157,-9.693 h -41.656 z m 20.566,-47.682 v -21.482 h 4.978 l 0.524,0.654 v 20.174 l -0.524,0.654 z m 0,13.363 h 4.978 l 0.524,0.655 v 17.814 l -0.524,0.523 h -4.978 z m 79.513,-51.351 h -20.435 v 16.506 h -5.632 v -16.506 h -20.566 v 31.177 l 12.968,54.493 h 20.828 l 12.837,-54.493 z m -26.067,29.343 h 5.632 v 8.645 l -2.489,22.27 -0.392,0.523 -0.262,-0.523 -2.489,-22.27 z m 31.7,56.327 h 40.478 l 8.515,-13.491 v -57.507 l -9.038,-14.672 h -39.955 z m 21.616,-69.164 h 5.107 l 0.526,0.654 v 52.66 l -0.526,0.523 h -5.107 z"
           style="fill:#7a0855;fill-opacity:1;fill-rule:nonzero;stroke:none"
           id="path1490"
           inkscape:connector-curvature="0" /><path
           d="M 218.2,689.588 V 656.71 l -6.55,-4.323 h -20.042 l -4.716,3.275 h -1.048 l -4.715,-3.275 h -21.877 l -7.597,4.715 v 32.486 z m -37.071,-15.981 h -16.637 v -3.929 l 0.524,-0.393 h 15.719 l 0.394,0.393 z m 10.479,0 v -3.929 l 0.524,-0.393 h 13.754 l 0.525,0.393 v 3.929 z m -39.953,-61.829 v 15.85 h 12.837 v 4.323 h -12.837 v 15.982 h 24.234 L 218.2,637.846 v -16.112 l -42.311,-9.956 z m 22.793,20.173 v -4.323 h 6.681 l 17.422,1.965 0.392,0.262 -0.392,0.131 -17.422,1.965 z m 43.752,-48.075 -43.097,-4.584 -0.524,-0.394 0.524,-0.524 H 218.2 v -12.968 h -66.545 v 23.317 l 43.096,4.585 0.525,0.524 -0.525,0.393 h -43.096 v 13.1 H 218.2 Z m -36.81,-38.774 h -29.735 v 15.85 H 218.2 v -15.85 h -27.116 v -0.394 l 5.502,-4.06 H 218.2 v -15.851 h -19.518 l -11.79,9.956 h -1.048 l -11.921,-9.956 h -22.268 v 15.851 h 24.234 l 5.501,4.06 z"
           style="fill:#450629;fill-opacity:1;fill-rule:nonzero;stroke:none"
           id="path1492"
           inkscape:connector-curvature="0" /><path
           d="m 228.287,378.084 v 5.502 l -0.262,0.26 h -2.621 l -0.262,-0.26 v -7.469 l 0.262,-0.392 10.481,-2.358 3.667,-5.107 v -18.078 l -3.275,-5.371 h -19.125 l -3.406,5.371 v 10.871 h 11.396 v -6.68 l 0.262,-0.393 h 2.621 l 0.262,0.393 v 8.777 l -0.262,0.262 -10.481,2.488 -3.798,5.11 v 16.636 l 3.144,4.715 h 19.649 l 3.013,-4.715 v -9.562 z m 20.697,4.453 h -6.157 v 9.824 h 23.84 v -9.824 h -6.024 v -37.726 h -11.659 z m 32.355,-17.291 v -9.957 h 7.729 v -10.478 h -19.126 v 47.55 h 19.126 v -9.824 h -7.729 v -9.17 h 7.729 v -8.121 z m 10.873,27.115 h 23.448 l 3.145,-4.715 V 375.07 l -4.061,-5.109 v -0.654 l 4.061,-5.11 v -19.386 h -12.052 v 20.697 l -0.262,0.392 h -2.882 v -21.089 h -11.397 z m 11.397,-18.994 h 2.882 l 0.262,0.395 v 9.824 l -0.262,0.26 h -2.882 z m 36.155,-18.078 v -10.478 h -17.816 v 47.55 h 11.658 v -37.072 z m 14.801,-10.478 h -11.658 v 47.551 h 11.658 z m 19.913,47.55 3.274,-30.783 0.263,-0.392 0.391,0.392 v 30.783 h 9.302 v -47.55 h -16.637 l -3.275,30.783 -0.393,0.394 -0.261,-0.394 v -30.783 h -9.301 v 47.55 z m 28.425,-37.988 0.262,-0.393 h 2.488 l 0.394,0.393 v 15.195 h 12.052 v -24.757 h -9.17 l -2.097,2.357 h -0.262 l -2.095,-2.357 h -10.217 l -3.406,5.371 v 37.464 l 3.012,4.715 h 21.222 l 3.013,-4.715 v -12.968 h -12.052 v 8.908 l -0.394,0.26 h -2.488 l -0.262,-0.26 z"
           style="fill:#290314;fill-opacity:1;fill-rule:nonzero;stroke:none"
           id="path1494"
           inkscape:connector-curvature="0" /><path
           d="m 263,224.164 1.834,2.883 h 12.314 l 1.833,-2.883 v -22.4 l -2.095,-3.143 h -11.79 L 263,201.764 Z m 7.074,-19.91 0.131,-0.131 h 1.572 l 0.131,0.131 v 17.553 l -0.131,0.131 h -1.572 l -0.131,-0.131 z m 10.741,22.793 h 14.147 l 1.835,-2.883 v -8.516 l -1.441,-1.964 v -0.524 l 1.441,-1.963 v -9.433 l -2.096,-3.143 h -13.886 z m 6.943,-15.85 v -7.074 h 1.573 l 0.261,0.131 v 6.68 l -0.261,0.263 z m 0,4.451 h 1.573 l 0.261,0.264 v 5.895 l -0.261,0.131 h -1.573 z m 21.614,-10.74 v -6.287 h -10.61 v 28.426 h 6.943 v -22.139 z m 8.907,-6.287 h -6.941 v 28.426 h 6.941 z m 9.171,5.633 0.131,-0.131 h 1.571 l 0.131,0.131 v 9.168 h 7.206 v -14.801 h -5.502 l -1.178,1.309 h -0.263 l -1.179,-1.309 h -6.156 l -1.965,3.143 v 22.4 l 1.833,2.883 h 12.575 l 1.835,-2.883 v -7.598 h -7.206 v 5.241 l -0.131,0.131 h -1.571 l -0.131,-0.131 z m 26.461,-5.633 H 347.1 v 5.502 h -1.834 v -5.502 h -6.813 v 10.348 l 4.323,18.078 h 6.812 l 4.323,-18.078 z m -8.645,9.693 h 1.834 v 2.883 l -0.787,7.465 -0.13,0.133 -0.132,-0.133 -0.785,-7.465 z m 14.278,12.836 h -3.668 v 5.897 h 14.278 v -5.897 h -3.668 v -22.529 h -6.942 z m 19.519,-22.529 h -6.943 v 28.426 h 6.943 z m 1.964,25.543 1.833,2.883 h 12.183 l 1.834,-2.883 v -22.4 l -1.965,-3.143 h -11.789 l -2.096,3.143 z m 6.942,-19.91 0.262,-0.131 h 1.442 l 0.262,0.131 v 17.553 l -0.262,0.131 h -1.442 l -0.262,-0.131 z m 20.96,22.793 1.964,-18.471 0.131,-0.131 0.262,0.131 v 18.471 h 5.502 v -28.426 h -9.956 l -1.964,18.338 -0.263,0.262 -0.13,-0.262 v -18.338 h -5.632 v 28.426 z m 18.469,-8.516 v 3.276 l -0.13,0.131 h -1.572 l -0.132,-0.131 v -4.453 l 0.132,-0.264 6.287,-1.442 2.228,-3.011 v -10.873 l -2.097,-3.143 h -11.396 l -1.965,3.143 v 6.55 h 6.811 v -4.06 l 0.132,-0.131 h 1.572 l 0.13,0.131 v 5.369 l -0.13,0.133 -6.289,1.441 -2.226,3.012 v 9.955 l 1.835,2.883 h 11.789 l 1.834,-2.883 v -5.633 z"
           style="fill:#4d0730;fill-opacity:1;fill-rule:nonzero;stroke:none"
           id="path1496"
           inkscape:connector-curvature="0" /><path
           d="m 407.618,675.049 h -6.811 v 5.502 h -1.964 v -5.502 h -6.813 v 10.479 l 4.323,18.078 h 6.942 l 4.323,-18.078 z m -8.775,9.825 h 1.964 v 2.881 l -0.917,7.467 v 0.131 l -0.13,-0.131 -0.917,-7.467 z m 17.421,-4.061 0.262,-0.262 h 1.441 l 0.262,0.262 v 6.025 h 6.55 v -8.514 l -1.966,-3.275 h -11.265 l -2.096,3.275 v 22.399 l 1.834,2.883 h 11.658 l 1.835,-2.883 v -7.728 h -6.55 v 5.37 l -0.262,0.132 h -1.441 l -0.262,-0.132 z m 17.291,0 0.133,-0.262 h 1.571 l 0.131,0.262 v 6.025 h 6.68 v -8.514 l -2.095,-3.275 h -11.266 l -1.966,3.275 v 22.399 l 1.834,2.883 h 11.659 l 1.834,-2.883 v -7.728 h -6.68 v 5.37 l -0.131,0.132 h -1.571 l -0.133,-0.132 z m 10.349,19.91 1.833,2.883 h 12.183 l 1.834,-2.883 v -22.399 l -1.964,-3.275 H 446 l -2.096,3.275 z m 6.942,-19.91 0.262,-0.262 h 1.442 l 0.262,0.262 v 17.552 l -0.262,0.132 h -1.442 l -0.262,-0.132 z m 10.874,22.793 h 7.204 v -22.793 l 0.263,-0.262 h 1.44 l 0.263,0.262 v 22.793 h 7.204 v -25.282 l -2.096,-3.275 h -12.183 l -2.095,3.275 z m 28.295,0 1.964,-18.47 0.131,-0.262 0.262,0.262 v 18.47 h 5.501 v -28.557 h -9.954 l -1.966,18.47 -0.263,0.262 -0.129,-0.262 v -18.47 h -5.633 v 28.557 z m 13.491,-5.895 h -3.667 v 5.895 h 14.278 v -5.895 h -3.668 v -22.662 h -6.943 z"
           style="fill:#48072c;fill-opacity:1;fill-rule:nonzero;stroke:none"
           id="path1498"
           inkscape:connector-curvature="0" /><path
           d="m 336.357,446.07 v 3.275 l -0.13,0.13 h -1.573 l -0.131,-0.13 v -4.585 l 0.131,-0.131 6.288,-1.441 2.228,-3.013 v -10.873 l -1.966,-3.274 h -11.527 l -1.964,3.274 v 6.55 h 6.81 v -4.06 l 0.131,-0.262 h 1.573 l 0.13,0.262 v 5.239 l -0.13,0.262 -6.288,1.441 -2.226,3.014 v 9.954 l 1.833,2.882 h 11.789 l 1.835,-2.882 v -5.632 z m 15.458,8.514 v -5.895 l 0.917,-7.466 v -0.131 l 0.131,0.131 0.917,7.466 v 5.895 h 6.812 v -3.274 l -4.062,-17.291 v -7.991 h -7.335 v 7.991 l -4.06,17.291 v 3.274 z m 19.387,-8.514 v 3.275 l -0.131,0.13 h -1.572 l -0.13,-0.13 v -4.585 l 0.13,-0.131 6.288,-1.441 2.228,-3.013 v -10.873 l -1.966,-3.274 h -11.528 l -1.964,3.274 v 6.55 h 6.812 v -4.06 l 0.13,-0.262 h 1.572 l 0.131,0.262 v 5.239 l -0.131,0.262 -6.288,1.441 -2.226,3.014 v 9.954 l 1.834,2.882 h 11.789 l 1.835,-2.882 v -5.632 z m 12.444,2.619 h -3.667 v 5.895 h 14.279 v -5.895 h -3.669 v -22.661 h -6.943 z m 19.388,-10.348 v -6.026 h 4.715 v -6.287 h -11.526 v 28.556 h 11.526 v -5.895 h -4.715 v -5.501 h 4.715 v -4.847 z m 16.374,16.243 1.18,-18.209 0.261,-0.26 0.13,0.26 1.18,18.209 h 9.824 v -28.556 h -6.156 v 16.767 l -0.263,0.262 -0.13,-0.262 -2.096,-16.767 h -5.109 l -1.964,16.767 -0.262,0.262 -0.263,-0.262 v -16.767 h -6.156 v 28.556 z"
           style="fill:#d5d4d4;fill-opacity:1;fill-rule:nonzero;stroke:none"
           id="path1500"
           inkscape:connector-curvature="0" /><path
           d="m 370.94,461.396 h -6.943 v 28.556 h 6.943 z m 11.789,28.557 1.179,-18.208 0.263,-0.263 0.131,0.263 1.178,18.208 h 9.826 v -28.557 h -6.158 v 16.768 l -0.261,0.13 -0.131,-0.13 -2.096,-16.768 h -5.109 l -2.097,16.768 -0.131,0.13 -0.26,-0.13 v -16.768 h -6.159 v 28.557 z m 14.542,0 h 14.015 l 1.834,-2.882 v -13.099 l -2.227,-2.882 h -6.549 v -9.694 h -7.073 z m 7.073,-13.754 h 1.703 l 0.131,0.262 v 8.121 l -0.131,0.262 h -1.703 z m 10.742,10.872 1.833,2.882 h 12.183 l 1.834,-2.882 v -22.4 l -1.965,-3.275 h -11.92 l -1.965,3.275 z m 6.941,-20.042 0.263,-0.132 h 1.441 l 0.261,0.132 v 17.553 l -0.261,0.262 h -1.441 l -0.263,-0.262 z m 10.873,22.924 h 14.017 l 1.834,-2.882 v -7.597 l -2.357,-3.013 v -0.394 l 2.357,-3.143 v -11.528 h -7.205 v 12.444 l -0.13,0.132 h -1.704 V 461.396 H 432.9 Z m 6.812,-11.527 h 1.704 l 0.13,0.262 v 5.894 l -0.13,0.262 h -1.704 z m 14.672,5.633 h -3.668 v 5.894 h 14.41 v -5.894 h -3.669 v -22.663 h -7.073 z"
           style="fill:#7a0855;fill-opacity:1;fill-rule:nonzero;stroke:none"
           id="path1502"
           inkscape:connector-curvature="0" /><path
           d="m 448.883,453.929 h 28.557 v -6.942 h -28.557 z m 28.556,-18.863 -18.471,-1.965 -0.261,-0.262 0.261,-0.131 h 18.471 v -5.632 h -28.556 v 9.955 l 18.47,1.965 0.262,0.262 -0.262,0.131 h -18.47 v 5.633 h 28.556 z m -16.767,-16.767 h -11.789 v 6.943 h 28.556 v -11.529 h -5.895 v 4.586 h -5.764 v -4.586 h -5.108 z m -5.502,-17.16 -6.287,-0.001 v 10.612 h 28.556 v -6.944 H 455.17 Z m -6.287,-17.424 v 6.812 h 5.501 v 1.834 h -5.501 v 6.812 h 10.478 l 18.078,-4.321 v -6.813 l -18.078,-4.324 z m 9.824,8.646 v -1.834 h 2.882 l 7.466,0.787 0.132,0.129 -0.132,0.133 -7.466,0.785 z m 12.837,-14.277 v 3.668 h 5.895 v -14.279 h -5.895 v 3.668 h -22.661 v 6.943 z m -10.349,-19.389 h -6.025 v -4.715 h -6.287 v 11.528 h 28.556 V 353.98 h -5.895 v 4.715 h -5.502 v -4.715 h -4.847 z"
           style="fill:#7c0856;fill-opacity:1;fill-rule:nonzero;stroke:none"
           id="path1504"
           inkscape:connector-curvature="0" /><path
           d="m 120.74,481.046 h -6.812 v 5.501 h -1.965 v -5.501 h -6.812 v 10.348 l 4.323,18.077 h 6.943 l 4.323,-18.077 z m -8.777,9.693 h 1.965 v 2.882 l -0.917,7.466 v 0.132 l -0.131,-0.132 -0.917,-7.466 z m 19.387,10.218 v 3.274 l -0.261,0.263 h -1.442 l -0.262,-0.263 v -4.454 l 0.262,-0.261 6.288,-1.441 2.227,-3.013 v -10.741 l -2.096,-3.275 h -11.397 l -2.096,3.275 v 6.418 h 6.812 v -4.061 l 0.262,-0.131 h 1.442 l 0.261,0.131 v 5.37 l -0.261,0.132 -6.157,1.441 -2.359,3.144 v 9.955 l 1.835,2.751 h 11.921 l 1.833,-2.751 v -5.763 z m 17.422,0 v 3.274 l -0.261,0.263 h -1.441 l -0.262,-0.263 v -4.454 l 0.262,-0.261 6.287,-1.441 2.096,-3.013 v -10.741 l -1.965,-3.275 h -11.397 l -2.095,3.275 v 6.418 h 6.812 v -4.061 l 0.262,-0.131 h 1.441 l 0.261,0.131 v 5.37 l -0.261,0.132 -6.288,1.441 -2.227,3.144 v 9.955 l 1.834,2.751 h 11.92 l 1.703,-2.751 v -5.763 z m 15.458,-7.729 v -5.895 h 4.716 v -6.287 h -11.528 v 28.425 h 11.528 v -5.894 h -4.716 v -5.502 h 4.716 v -4.847 z m 10.218,10.349 h -3.668 v 5.894 h 14.409 v -5.894 h -3.668 v -22.531 h -7.073 z m 21.351,-2.62 v 3.274 l -0.131,0.263 h -1.571 l -0.131,-0.263 v -4.454 l 0.131,-0.261 6.288,-1.441 2.226,-3.013 v -10.741 l -1.964,-3.275 h -11.528 l -1.965,3.275 v 6.418 h 6.812 v -4.061 l 0.131,-0.131 h 1.571 l 0.131,0.131 v 5.37 l -0.131,0.132 -6.287,1.441 -2.227,3.144 v 9.955 l 1.835,2.751 h 11.789 l 1.833,-2.751 v -5.763 z"
           style="fill:#807e7e;fill-opacity:1;fill-rule:nonzero;stroke:none"
           id="path1506"
           inkscape:connector-curvature="0" /><path
           d="m 269.419,172.422 0.131,-0.264 h 1.572 l 0.13,0.264 v 6.025 h 6.55 v -8.515 l -1.964,-3.274 h -11.266 l -1.965,3.274 v 22.4 l 1.833,2.883 h 11.529 l 1.833,-2.883 v -7.728 h -6.55 v 5.24 l -0.13,0.261 h -1.572 l -0.131,-0.261 z m 10.348,22.793 h 14.018 l 1.833,-2.883 v -7.598 l -2.358,-3.011 v -0.393 l 2.358,-3.014 v -11.658 h -7.205 v 12.444 l -0.13,0.263 h -1.704 v -12.707 h -6.812 z m 6.812,-11.397 h 1.704 l 0.13,0.131 v 5.895 l -0.13,0.261 h -1.704 z m 17.816,-4.978 v -5.895 h 4.715 v -6.287 h -11.527 v 28.557 h 11.527 v -5.895 h -4.715 v -5.502 h 4.715 v -4.978 z m 6.549,16.375 h 13.494 l 2.88,-4.455 v -19.256 l -3.142,-4.846 h -13.232 z m 7.204,-23.057 h 1.705 l 0.13,0.264 v 17.422 l -0.13,0.261 h -1.705 z m 18.079,-5.5 h -7.074 v 28.557 h 7.074 z m 5.502,22.662 h -3.668 v 5.895 h 14.409 v -5.895 h -3.668 v -22.662 h -7.073 z"
           style="fill:#4d0730;fill-opacity:1;fill-rule:nonzero;stroke:none"
           id="path1508"
           inkscape:connector-curvature="0" /><path
           d="m 142.223,643.61 v -4.847 h -15.196 l -0.131,-0.131 v -1.048 l 0.131,-0.131 h 15.196 v -4.846 h -16.767 l -2.227,1.44 v 8.122 l 2.227,1.441 z m 0,-18.863 -12.313,-1.31 -0.131,-0.131 0.131,-0.132 h 12.313 v -3.798 h -18.994 v 6.681 l 12.313,1.309 0.131,0.131 -0.131,0.131 h -12.313 v 3.8 h 18.994 z m -15.196,-11.135 -0.131,-0.131 v -1.048 h 4.193 v -4.454 h -5.633 l -2.227,1.31 v 7.598 l 2.227,1.31 h 14.933 l 1.834,-1.179 v -7.86 l -1.834,-1.179 h -5.24 v 4.454 h 3.667 v 1.179 z m 13.362,-6.943 1.834,-1.178 v -8.122 l -1.834,-1.31 h -14.933 l -2.227,1.441 v 7.86 l 2.227,1.309 z m -13.362,-4.584 -0.131,-0.131 v -1.048 l 0.131,-0.131 h 11.789 v 1.31 z m 15.196,-13.886 -12.313,-1.441 h -0.131 l 0.131,-0.131 h 12.313 v -3.799 h -18.994 v 6.681 l 12.313,1.31 0.131,0.131 -0.131,0.132 h -12.313 v 3.797 h 18.994 z m -11.134,-11.134 h -7.86 v 4.584 h 18.994 v -7.729 h -3.93 v 3.145 h -3.799 v -3.145 h -3.405 z m -7.86,-4.454 h 18.994 v -4.585 h -18.994 z m 18.994,-5.895 v -9.431 l -1.834,-1.18 h -5.109 l -1.964,1.572 h -0.262 l -2.096,-1.572 h -7.729 v 4.847 h 8.252 l 0.131,0.131 v 1.048 h -8.383 v 4.585 z m -7.598,-4.585 v -1.048 l 0.131,-0.131 h 4.06 v 1.179 z m 7.598,-13.885 -12.052,-0.786 -0.13,-0.131 0.13,-0.131 12.052,-0.786 v -6.55 h -18.994 v 4.061 h 11.135 l 0.261,0.262 -0.261,0.131 -11.135,1.309 v 3.406 l 11.135,1.442 0.261,0.131 -0.261,0.131 h -11.135 v 4.06 h 18.994 z M 131.35,534.098 h -3.93 v -3.143 h -4.191 v 7.597 h 18.994 v -7.597 h -3.93 v 3.143 h -3.668 v -3.143 h -3.275 z m 10.873,-4.453 v -8.908 l -2.882,-1.965 h -12.837 l -3.275,2.096 v 8.777 z m -15.327,-4.717 v -1.178 l 0.131,-0.131 h 11.789 v 1.309 z"
           style="fill:#d5d4d4;fill-opacity:1;fill-rule:nonzero;stroke:none"
           id="path1510"
           inkscape:connector-curvature="0" /><path
           d="m 140.651,344.287 h -4.847 v 4.977 h 11.528 v -25.151 l -1.966,-3.275 h -11.264 l -1.965,3.275 v 8.514 h 6.55 v -6.156 l 0.261,-0.131 h 1.441 l 0.262,0.131 z m 8.646,4.977 h 7.204 v -22.793 l 0.131,-0.131 h 1.573 l 0.131,0.131 v 22.793 h 7.204 v -25.151 l -1.965,-3.275 h -12.313 l -1.965,3.275 z m 28.163,0 1.965,-18.469 0.263,-0.133 0.13,0.133 v 18.469 h 5.634 v -28.426 h -9.956 l -1.965,18.471 -0.262,0.13 -0.263,-0.13 v -18.471 h -5.501 v 28.426 z m 16.637,-15.719 v -12.707 h -6.812 v 28.426 h 6.812 v -11.528 h 0.262 l 1.703,2.358 v 9.17 h 6.812 v -8.252 l -4.323,-5.11 v -0.392 l 4.323,-5.11 v -9.562 h -6.812 v 10.35 l -1.703,2.357 z"
           style="fill:#d5d4d4;fill-opacity:1;fill-rule:nonzero;stroke:none"
           id="path1512"
           inkscape:connector-curvature="0" /><path
           d="m 223.309,339.701 h 4.847 v -15.195 l 0.131,-0.131 h 1.048 l 0.13,0.131 v 15.195 h 4.716 v -16.767 l -1.31,-2.227 h -8.121 l -1.441,2.227 z m 18.863,0 1.31,-12.312 0.13,-0.131 0.132,0.131 v 12.312 h 3.668 v -18.994 h -6.681 l -1.31,12.314 -0.131,0.131 -0.13,-0.131 v -12.314 h -3.669 v 18.994 z m 12.314,-5.633 v 2.229 l -0.131,0.131 h -0.918 l -0.13,-0.131 v -3.014 l 0.13,-0.131 4.062,-1.048 1.571,-1.965 v -7.205 l -1.309,-2.227 h -7.729 l -1.31,2.227 v 4.324 h 4.585 v -2.752 l 0.13,-0.131 h 0.918 l 0.131,0.131 v 3.537 l -0.131,0.131 -4.193,1.049 -1.44,1.965 v 6.679 l 1.179,1.834 h 7.99 l 1.179,-1.834 v -3.799 z m 10.348,-5.238 v -3.932 h 3.144 v -4.191 h -7.729 v 18.994 h 7.729 v -3.93 h -3.144 v -3.667 h 3.144 v -3.274 z m 8.908,-4.324 0.131,-0.131 h 1.048 l 0.131,0.131 v 4.06 h 4.454 v -5.632 l -1.442,-2.227 h -7.466 l -1.31,2.227 v 14.933 l 1.179,1.834 h 7.729 l 1.31,-1.834 v -5.107 h -4.454 v 3.537 l -0.131,0.131 h -1.048 l -0.131,-0.131 z m 6.943,15.195 h 4.846 v -15.195 l 0.131,-0.131 h 1.048 l 0.131,0.131 v 15.195 h 4.717 v -16.767 l -1.311,-2.227 h -8.122 l -1.44,2.227 z m 12.182,0 h 9.432 l 1.179,-1.834 v -5.107 l -1.573,-1.965 v -0.264 l 1.573,-2.095 v -7.729 h -4.847 v 8.383 l -0.131,0.133 h -1.048 v -8.516 h -4.585 z m 4.585,-7.597 h 1.048 l 0.131,0.132 v 4.061 l -0.131,0.131 h -1.048 z m 11.789,-3.274 v -3.932 h 3.145 v -4.191 h -7.599 v 18.994 h 7.599 v -3.93 h -3.145 v -3.667 h 3.145 v -3.274 z m 4.454,10.871 h 8.908 l 1.965,-2.881 v -12.838 l -2.096,-3.275 h -8.777 z m 4.716,-15.326 h 1.179 l 0.131,0.131 v 11.791 l -0.131,0.131 h -1.179 z"
           style="fill:#7b0855;fill-opacity:1;fill-rule:nonzero;stroke:none"
           id="path1514"
           inkscape:connector-curvature="0" /><path
           d="m 295.356,147.008 v -5.895 h 4.585 v -6.287 h -11.397 v 28.557 h 11.397 v -5.895 h -4.585 v -5.502 h 4.585 v -4.978 z m 6.549,16.375 h 7.205 V 140.59 l 0.131,-0.262 h 1.572 l 0.131,0.262 v 22.793 h 7.204 V 138.1 l -1.964,-3.274 H 303.87 l -1.965,3.274 z m 18.21,0 h 14.016 l 1.834,-2.883 v -7.598 l -2.359,-3.011 v -0.393 l 2.359,-3.014 v -11.658 h -7.205 v 12.444 l -0.131,0.263 h -1.703 v -12.707 h -6.811 z m 6.811,-11.397 h 1.703 l 0.131,0.131 v 6.026 l -0.131,0.13 h -1.703 z m 11.003,8.514 1.835,2.883 h 12.181 l 1.835,-2.883 v -22.4 l -1.965,-3.274 h -11.92 l -1.966,3.274 z m 6.943,-19.91 0.263,-0.262 h 1.439 l 0.263,0.262 v 17.553 l -0.263,0.13 h -1.439 l -0.263,-0.13 z"
           style="fill:#1c0108;fill-opacity:1;fill-rule:nonzero;stroke:none"
           id="path1516"
           inkscape:connector-curvature="0" /><path
           d="m 326.271,411.75 v -7.861 h -4.585 v 18.995 h 7.597 v -3.93 h -3.012 v -3.799 h 3.012 v -3.405 z m 9.039,-7.861 h -4.716 v 18.995 h 4.716 z m 7.86,18.995 1.309,-12.314 0.131,-0.131 0.131,0.131 v 12.314 h 3.799 v -18.995 h -6.681 l -1.309,12.314 -0.132,0.131 -0.131,-0.131 v -12.314 h -3.798 v 18.995 z m 16.897,-18.995 h -4.454 v 3.668 h -1.309 v -3.668 h -4.584 v 6.944 l 2.881,12.051 h 4.585 l 2.881,-12.051 z m -5.763,6.419 h 1.309 v 1.966 l -0.654,4.976 v 0.132 l -0.131,-0.132 -0.524,-4.976 z m 13.755,12.576 1.31,-12.314 0.13,-0.131 0.131,0.131 v 12.314 h 3.668 v -18.995 h -6.681 l -1.31,12.314 -0.131,0.131 -0.131,-0.131 v -12.314 h -3.667 v 18.995 z m 11.134,-15.195 0.13,-0.132 h 0.918 l 0.13,0.132 v 4.061 h 4.454 v -5.764 l -1.309,-2.097 h -7.598 l -1.31,2.097 v 15.063 l 1.179,1.835 h 7.859 l 1.179,-1.835 v -5.239 h -4.454 v 3.537 l -0.13,0.131 h -0.918 l -0.13,-0.131 z m 11.528,-3.8 h -4.717 v 18.995 h 4.717 z m 11.658,0 h -4.585 v 3.668 h -1.179 v -3.668 h -4.585 v 6.944 l 2.882,12.051 h 4.585 l 2.882,-12.051 z m -5.764,6.419 h 1.179 v 1.966 l -0.523,4.976 -0.132,0.132 v -0.132 l -0.524,-4.976 z m 14.148,-2.227 v -4.192 h -7.205 v 18.995 h 4.715 v -14.803 z"
           style="fill:#dad9da;fill-opacity:1;fill-rule:nonzero;stroke:none"
           id="path1518"
           inkscape:connector-curvature="0" /><path
           d="m 332.428,329.354 v -3.93 h 3.013 v -4.192 h -7.597 v 18.993 h 7.597 v -3.928 h -3.013 v -3.67 h 3.013 v -3.273 z m 8.907,-8.122 h -4.585 v 6.418 l 2.883,3.407 v 0.261 l -2.883,3.405 v 5.502 h 4.585 v -5.762 l 1.048,-1.442 h 0.131 v 7.204 h 4.586 v -5.502 l -2.882,-3.405 v -0.261 l 2.882,-3.407 v -6.418 h -4.586 v 6.549 l -1.048,1.309 h -0.131 z m 11.528,3.797 0.131,-0.131 h 1.048 l 0.13,0.131 v 4.061 h 4.454 v -5.631 l -1.44,-2.227 h -7.466 l -1.311,2.227 v 14.934 l 1.179,1.832 h 7.729 l 1.309,-1.832 v -5.11 h -4.454 v 3.537 h -1.309 z m 11.658,4.325 v -8.122 h -4.715 v 18.993 h 4.715 v -7.598 h 1.311 v 7.598 h 4.585 v -18.993 h -4.585 v 8.122 z m 17.554,-8.122 h -4.585 v 3.666 h -1.179 v -3.666 h -4.585 v 6.942 l 2.882,12.051 h 4.585 l 2.882,-12.051 z m -5.764,6.549 h 1.179 v 1.965 l -0.523,4.977 h -0.132 l -0.524,-4.977 z m 13.754,12.444 1.31,-12.313 0.131,-0.131 0.131,0.131 v 12.313 h 3.669 v -18.993 h -6.681 l -1.311,12.313 -0.13,0.131 -0.132,-0.131 v -12.313 h -3.667 v 18.993 z m 11.266,-15.196 0.131,-0.131 h 1.048 l 0.131,0.131 v 6.159 h 4.847 v -9.956 h -3.668 l -0.917,0.916 h -0.132 l -0.785,-0.916 h -4.061 l -1.441,2.227 v 14.934 l 1.31,1.832 h 8.384 l 1.31,-1.832 v -5.11 h -4.847 v 3.537 h -1.31 z m 11.92,4.325 v -3.93 h 3.144 v -4.192 h -7.728 v 18.993 h 7.728 v -3.928 h -3.144 v -3.67 h 3.144 v -3.273 z"
           style="fill:#7c0856;fill-opacity:1;fill-rule:nonzero;stroke:none"
           id="path1520"
           inkscape:connector-curvature="0" /><path
           d="m 171.173,205.039 h 9.3 l 1.31,-1.965 v -8.646 l -1.571,-1.963 h -4.323 v -6.551 h -4.716 z m 4.716,-9.17 h 1.048 l 0.13,0.131 v 5.502 l -0.13,0.131 h -1.048 z m 11.658,-1.703 v -3.93 h 3.144 v -4.322 h -7.729 v 19.125 h 7.729 v -3.93 h -3.144 v -3.668 h 3.144 v -3.275 z m 4.454,10.873 h 9.3 l 1.31,-1.965 v -4.976 L 200.909,196 v -0.262 l 1.702,-1.965 v -7.859 h -4.847 v 8.383 l -0.13,0.131 h -1.179 v -8.514 h -4.454 z m 4.454,-7.598 h 1.179 l 0.13,0.131 v 3.93 l -0.13,0.131 h -1.179 z m 13.231,1.834 v 2.227 l -0.131,0.131 h -1.048 l -0.132,-0.131 v -3.014 l 0.132,-0.131 4.191,-0.916 1.441,-2.095 v -7.205 l -1.309,-2.227 h -7.598 l -1.441,2.227 v 4.324 h 4.584 v -2.621 l 0.132,-0.131 h 1.048 l 0.131,0.131 v 3.537 h -0.131 l -4.192,1.047 -1.572,1.965 v 6.681 l 1.31,1.965 h 7.859 l 1.179,-1.965 v -3.799 z m 5.763,3.799 1.179,1.965 h 8.253 l 1.179,-1.965 v -14.933 l -1.31,-2.227 h -7.991 l -1.31,2.227 z m 4.716,-13.23 0.131,-0.131 h 0.917 l 0.131,0.131 v 11.658 l -0.131,0.131 h -0.917 l -0.131,-0.131 z m 13.885,15.195 1.31,-12.314 0.131,-0.129 0.132,0.129 v 12.314 h 3.667 v -19.125 h -6.68 l -1.31,12.443 -0.132,0.131 -0.13,-0.131 v -12.443 h -3.669 v 19.125 z m 16.899,-19.125 h -4.585 v 3.799 h -1.31 v -3.799 H 240.6 v 6.941 l 2.882,12.184 h 4.584 l 2.883,-12.184 z m -5.895,6.551 h 1.31 v 1.963 l -0.525,4.978 -0.13,0.131 v -0.131 l -0.655,-4.978 z m 14.278,-2.229 v -4.322 h -7.204 v 19.125 h 4.715 v -14.803 z"
           style="fill:#24020f;fill-opacity:1;fill-rule:nonzero;stroke:none"
           id="path1522"
           inkscape:connector-curvature="0" /><path
           d="m 104.103,373.762 h -6.288 v 10.74 h 28.558 v -7.074 h -22.27 z m -6.288,-1.836 h 28.557 v -7.072 H 97.815 Z m 28.558,-18.994 -18.471,-1.965 -0.262,-0.131 0.262,-0.262 h 18.471 v -5.502 H 97.815 v 9.957 l 18.471,1.963 0.262,0.133 -0.262,0.262 H 97.815 v 5.631 h 28.558 z m -16.374,-16.635 h -5.896 v -4.717 h -6.288 v 11.527 h 28.558 V 331.58 h -5.895 v 4.717 h -5.502 v -4.717 h -4.977 z"
           style="fill:#760853;fill-opacity:1;fill-rule:nonzero;stroke:none"
           id="path1524"
           inkscape:connector-curvature="0" /><path
           d="m 286.186,160.895 v -9.432 l -1.834,-1.18 h -5.764 l -1.309,0.916 h -0.262 l -1.442,-0.916 h -6.156 l -2.227,1.311 v 9.301 z m -10.611,-4.586 h -4.715 v -1.047 l 0.13,-0.131 h 4.454 l 0.131,0.131 z m 3.013,0 v -1.047 l 0.131,-0.131 h 4.062 v 1.178 z m -11.396,-17.684 v 4.584 h 3.668 v 1.18 h -3.668 v 4.586 h 6.943 l 12.051,-2.883 v -4.586 l -12.051,-2.881 z m 6.55,5.764 v -1.18 h 1.833 l 4.979,0.523 0.131,0.133 h -0.131 l -4.979,0.524 z m 12.444,-13.623 -12.313,-1.311 -0.131,-0.131 0.131,-0.131 h 12.313 v -3.798 h -18.994 v 6.679 l 12.314,1.311 0.13,0.131 -0.13,0.13 h -12.314 v 3.799 h 18.994 z m -10.479,-11.135 h -8.515 v 4.584 h 18.994 v -4.584 h -7.728 V 119.5 l 1.571,-1.18 h 6.157 v -4.453 h -5.501 l -3.406,2.75 h -0.262 l -3.406,-2.75 h -6.419 v 4.453 h 6.943 l 1.572,1.18 z m -8.515,-7.074 h 18.994 v -4.717 h -18.994 z m 18.994,-12.577 -12.313,-1.308 -0.131,-0.131 0.131,-0.131 h 12.313 v -3.801 h -18.994 v 6.682 l 12.314,1.311 0.13,0.13 -0.13,0.131 h -12.314 v 3.799 h 18.994 z M 270.99,88.584 270.86,88.453 v -1.047 l 0.13,-0.131 h 6.158 v -4.847 h -9.956 v 3.799 l 0.917,0.785 v 0.133 l -0.917,0.785 v 4.06 l 2.227,1.442 h 14.933 l 1.834,-1.311 v -8.383 l -1.834,-1.31 h -5.24 v 4.847 h 3.669 v 1.309 z"
           style="fill:#4a072d;fill-opacity:1;fill-rule:nonzero;stroke:none"
           id="path1526"
           inkscape:connector-curvature="0" /><path
           d="m 307.407,131.158 v -9.431 l -1.965,-1.178 h -5.632 l -1.442,0.916 h -0.261 l -1.31,-0.916 h -6.287 l -2.227,1.308 v 9.301 z m -10.61,-4.586 h -4.847 v -1.047 l 0.131,-0.13 h 4.585 l 0.131,0.13 z m 3.013,0 v -1.047 l 0.131,-0.13 h 3.929 l 0.131,0.13 v 1.047 z m -11.527,-17.683 v 4.586 h 3.667 v 1.308 h -3.667 v 4.455 h 6.942 l 12.182,-2.752 v -4.715 l -12.182,-2.882 z m 6.55,5.894 v -1.308 h 1.964 l 4.977,0.523 v 0.131 l -4.977,0.654 z m -2.359,-14.277 h -4.191 v 7.203 h 19.124 v -4.715 h -14.933 z m -4.191,-11.529 v 4.455 h 3.667 v 1.31 h -3.667 v 4.584 h 6.942 l 12.182,-2.881 v -4.716 l -12.182,-2.752 z m 6.55,5.765 v -1.31 h 1.964 l 4.977,0.654 v 0.133 l -4.977,0.523 z m 12.574,-13.756 -12.313,-1.308 -0.261,-0.131 0.261,-0.133 h 12.313 v -3.666 h -19.124 v 6.549 l 12.312,1.441 0.262,0.131 -0.262,0.131 h -12.312 v 3.668 h 19.124 z M 292.081,69.852 291.95,69.721 v -0.916 l 0.131,-0.131 h 4.191 v -4.455 h -5.762 l -2.227,1.31 v 7.598 l 2.227,1.311 h 14.932 l 1.965,-1.18 v -7.86 l -1.965,-1.179 h -5.108 v 4.455 h 3.536 l 0.131,0.131 v 0.916 l -0.131,0.131 z m 4.454,-11.397 h -4.061 v -3.142 h -4.191 v 7.728 h 19.124 v -7.728 h -3.929 v 3.142 h -3.668 v -3.142 h -3.275 z"
           style="fill:#1f020a;fill-opacity:1;fill-rule:nonzero;stroke:none"
           id="path1528"
           inkscape:connector-curvature="0" /><path
           d="m 223.046,145.961 v -5.895 l 0.787,-7.466 0.13,-0.131 0.131,0.131 0.787,7.466 v 5.895 h 6.811 v -3.275 l -3.929,-17.291 v -7.993 h -7.467 v 7.993 l -4.061,17.291 v 3.275 z m 17.423,-16.244 v -6.026 h 4.716 v -6.289 h -11.527 v 28.559 h 11.527 v -5.895 h -4.716 v -5.502 h 4.716 v -4.847 z m 16.636,16.244 1.965,-18.471 0.131,-0.261 0.262,0.261 v 18.471 h 5.502 v -28.559 h -9.956 l -1.964,18.473 -0.131,0.26 -0.263,-0.26 v -18.473 h -5.632 v 28.559 z"
           style="fill:#1b0107;fill-opacity:1;fill-rule:nonzero;stroke:none"
           id="path1530"
           inkscape:connector-curvature="0" /><path
           d="m 364.783,181.854 v -7.86 h -4.453 v 18.994 h 7.598 v -3.929 h -3.145 v -3.801 h 3.145 v -3.404 z m 9.038,-7.86 h -4.584 v 18.994 h 4.584 z m 7.992,18.994 1.31,-12.314 0.131,-0.131 0.131,0.131 v 12.314 h 3.799 v -18.994 h -6.682 l -1.309,12.313 -0.13,0.131 -0.263,-0.131 v -12.313 h -3.668 v 18.994 z m 16.898,-18.994 h -4.585 v 3.666 h -1.179 v -3.666 h -4.585 v 6.942 l 2.882,12.052 h 4.585 l 2.882,-12.052 z m -5.764,6.549 h 1.179 v 1.965 l -0.524,4.978 h -0.131 l -0.524,-4.978 z m 13.754,12.445 1.311,-12.314 0.131,-0.131 0.13,0.131 v 12.314 h 3.669 v -18.994 h -6.681 l -1.31,12.313 -0.131,0.131 -0.132,-0.131 v -12.313 h -3.667 v 18.994 z m 11.004,-15.195 0.131,-0.133 h 1.048 l 0.132,0.133 v 4.061 h 4.453 v -5.633 l -1.442,-2.227 h -7.465 l -1.311,2.227 v 14.933 l 1.179,1.834 h 7.729 l 1.31,-1.834 v -5.109 h -4.453 v 3.537 h -1.311 z m 11.528,4.322 v -3.929 h 3.144 v -4.192 h -7.729 v 18.994 h 7.729 v -3.929 h -3.144 v -3.668 h 3.144 v -3.276 z"
           style="fill:#cccbcb;fill-opacity:1;fill-rule:nonzero;stroke:none"
           id="path1532"
           inkscape:connector-curvature="0" /><path
           d="m 225.798,59.635 h -4.716 v 18.994 h 4.716 z m 7.86,18.994 0.785,-12.182 0.132,-0.133 0.131,0.133 0.785,12.182 h 6.55 V 59.635 H 237.85 V 70.77 l -0.132,0.13 -0.131,-0.13 -1.31,-11.135 h -3.406 l -1.44,11.135 -0.131,0.13 -0.132,-0.13 V 59.635 h -4.06 v 18.994 z m 9.693,0 h 9.3 l 1.31,-1.834 V 68.02 l -1.572,-1.967 h -4.323 v -6.418 h -4.715 z m 4.715,-9.17 h 1.048 l 0.131,0.131 v 5.502 l -0.131,0.131 h -1.048 z m 7.075,9.17 h 4.846 V 63.434 l 0.131,-0.131 h 1.048 l 0.131,0.131 v 15.195 h 4.847 V 61.73 l -1.441,-2.095 h -8.121 l -1.441,2.095 z m 14.671,-3.93 h -2.489 v 3.93 h 9.563 v -3.93 h -2.49 V 59.635 h -4.584 z m 12.969,-6.943 v -3.928 h 3.012 v -4.193 h -7.597 v 18.994 h 7.597 v -3.93 h -3.012 v -3.668 h 3.012 v -3.275 z"
           style="fill:#47072b;fill-opacity:1;fill-rule:nonzero;stroke:none"
           id="path1534"
           inkscape:connector-curvature="0" /><path
           d="m 354.828,253.77 h -2.358 v 3.929 h 9.562 v -3.929 h -2.488 v -15.065 h -4.716 z m 8.383,3.929 h 9.433 l 1.309,-1.834 v -5.109 l -1.703,-1.965 v -0.262 l 1.703,-2.095 v -7.729 h -4.847 v 8.252 l -0.13,0.131 h -1.18 v -8.383 h -4.585 z m 4.585,-7.597 h 1.18 l 0.13,0.13 v 3.93 l -0.13,0.131 h -1.18 z m 7.336,7.597 h 4.847 v -15.195 l 0.131,-0.131 h 1.048 l 0.131,0.131 v 15.195 h 4.715 v -16.898 l -1.31,-2.096 h -8.121 l -1.441,2.096 z m 17.946,-5.633 v 2.096 l -0.131,0.131 h -0.917 l -0.131,-0.131 v -3.014 l 0.131,-0.13 4.193,-0.916 1.44,-1.965 v -7.336 l -1.309,-2.096 h -7.729 l -1.311,2.096 v 4.453 h 4.585 v -2.75 l 0.131,-0.131 h 0.917 l 0.131,0.131 v 3.537 l -0.131,0.131 -4.191,0.916 -1.442,2.098 v 6.679 l 1.179,1.834 h 7.991 l 1.179,-1.834 v -3.799 z m 8.253,1.704 h -2.488 v 3.929 h 9.693 v -3.929 h -2.489 v -15.065 h -4.716 z"
           style="fill:#d0cfcf;fill-opacity:1;fill-rule:nonzero;stroke:none"
           id="path1536"
           inkscape:connector-curvature="0" /><path
           d="m 166.981,371.926 v -8.121 h -4.585 v 19.125 h 4.585 v -7.729 h 1.31 v 7.729 h 4.715 v -19.125 h -4.715 v 8.121 z m 7.205,9.039 1.31,1.965 h 8.121 l 1.179,-1.965 v -14.934 l -1.309,-2.226 h -7.86 l -1.441,2.226 z m 4.716,-13.361 0.131,-0.131 h 1.048 l 0.131,0.131 v 11.789 l -0.131,0.13 h -1.048 l -0.131,-0.13 z m 13.754,15.326 0.785,-12.182 0.132,-0.133 0.131,0.133 0.785,12.182 h 6.55 v -19.125 h -4.06 v 11.265 l -0.131,0.131 -0.132,-0.131 -1.44,-11.265 h -3.406 l -1.31,11.265 -0.131,0.131 -0.131,-0.131 v -11.265 h -4.192 v 19.125 z m 14.278,-11.004 v -3.93 h 3.144 v -4.191 h -7.729 v 19.125 h 7.729 v -4.061 h -3.144 v -3.668 h 3.144 v -3.275 z"
           style="fill:#4d0730;fill-opacity:1;fill-rule:nonzero;stroke:none"
           id="path1538"
           inkscape:connector-curvature="0" /><path
           d="m 314.613,76.533 0.131,-0.131 h 1.048 l 0.13,0.131 v 4.061 h 4.324 V 74.83 l -1.31,-2.096 h -7.467 l -1.442,2.096 v 15.065 l 1.311,1.834 h 7.728 l 1.18,-1.834 v -5.241 h -4.324 v 3.537 l -0.13,0.131 h -1.048 l -0.131,-0.131 z m 17.291,-3.799 h -4.586 v 3.668 h -1.178 v -3.668 h -4.585 v 6.944 l 2.883,12.051 h 4.583 l 2.883,-12.051 z m -5.764,6.418 h 1.178 v 1.967 l -0.523,4.977 -0.131,0.131 v -0.131 l -0.524,-4.977 z m 12.837,6.813 v 2.226 l -0.131,0.131 h -1.048 l -0.13,-0.131 V 85.18 l 0.13,-0.133 4.192,-0.916 1.441,-2.096 V 74.83 l -1.31,-2.096 h -7.598 l -1.44,2.096 v 4.322 h 4.585 v -2.619 l 0.13,-0.131 h 1.048 l 0.131,0.131 v 3.537 l -0.131,0.131 -4.192,0.918 -1.571,2.096 v 6.68 l 1.31,1.834 h 7.859 l 1.179,-1.834 v -3.93 z m 10.48,-5.11 v -8.121 h -4.716 v 18.995 h 4.716 v -7.598 h 1.18 v 7.598 h 4.715 V 72.734 h -4.715 v 8.121 z"
           style="fill:#7d7b7b;fill-opacity:1;fill-rule:nonzero;stroke:none"
           id="path1540"
           inkscape:connector-curvature="0" /><path
           d="m 361.509,166.266 -0.131,-0.131 v -0.526 h 2.096 v -2.226 h -2.752 l -1.178,0.654 v 3.799 l 1.178,0.656 h 7.337 l 1.047,-0.656 v -3.799 l -1.047,-0.654 h -2.49 v 2.226 h 1.834 v 0.526 l -0.132,0.131 z m 7.597,-3.537 v -4.586 l -1.047,-0.655 h -2.49 l -0.917,0.785 h -0.131 l -1.047,-0.785 h -3.93 v 2.358 h 4.191 v 0.654 h -4.191 v 2.229 z m -3.799,-2.229 v -0.654 h 1.964 l 0.132,0.131 v 0.523 z m -1.703,-5.895 h -1.964 v -1.57 h -2.096 v 3.797 h 9.562 v -3.797 h -1.964 v 1.57 h -1.835 v -1.57 h -1.703 z m 5.502,-2.226 v -4.453 l -1.572,-1.049 h -6.288 l -1.702,1.049 v 4.453 z m -7.728,-3.014 h 6.025 v 0.656 h -6.025 z m -1.834,-3.142 h 9.563 v -2.227 h -9.563 z m 7.598,-4.192 v 1.311 h 1.964 v -4.848 h -1.964 v 1.311 h -7.598 v 2.226 z m -7.598,-8.385 4.453,0.393 v 0.131 l -4.453,0.394 v 2.75 l 9.562,0.657 v -2.227 l -5.502,-0.264 v -0.13 l 5.502,-0.262 v -1.965 l -5.502,-0.262 v -0.131 l 5.502,-0.392 v -2.096 l -9.562,0.654 z m 8.515,-4.06 1.047,-0.523 V 125 l -1.047,-0.654 h -7.337 L 359.544,125 v 3.932 l 1.178,0.654 z m -6.55,-2.227 -0.131,-0.13 v -0.524 h 6.025 v 0.524 l -0.132,0.13 z m 7.597,-3.668 v -4.716 l -1.047,-0.524 h -2.49 l -0.917,0.787 h -0.131 l -1.047,-0.787 h -3.93 v 2.358 h 4.191 v 0.656 h -4.191 v 2.226 z m -3.799,-2.882 h 2.097 v 0.656 h -2.097 z m 1.835,-4.323 v 1.311 h 1.964 v -4.846 h -1.964 v 1.309 h -7.598 v 2.226 z m -3.538,-6.548 h -4.06 v 2.357 h 9.562 v -2.357 h -3.799 v -0.524 h 3.799 v -2.359 h -9.562 v 2.359 h 4.06 z m -4.06,-3.538 h 9.563 v -2.357 h -9.563 z m 9.562,-6.289 -6.157,-0.654 -0.13,-0.131 h 6.287 v -1.834 h -9.562 v 3.276 l 6.156,0.654 h 0.132 l -0.132,0.131 h -6.156 v 1.834 h 9.562 z m -5.502,-5.632 h -1.964 v -1.571 h -2.096 v 3.93 h 9.562 v -3.93 h -1.964 v 1.571 h -1.835 v -1.571 h -1.703 z m 2.62,-4.977 h 1.179 v 0.523 H 365.7 l -0.393,-2.095 -1.048,-0.785 h -3.537 l -1.178,0.654 v 3.799 l 1.178,0.785 h 2.097 v -2.358 h -1.441 v -0.523 h 1.965 l 0.392,2.096 1.048,0.785 h 3.276 l 1.047,-0.654 v -3.93 l -1.047,-0.654 h -1.835 z m 0,-5.895 h 1.047 l 0.132,0.131 v 0.393 l -0.132,0.131 h -1.439 l -0.132,-0.131 -0.393,-1.965 -1.048,-0.787 h -3.537 l -1.178,0.656 v 3.799 l 1.178,0.654 h 2.097 v -2.226 h -1.31 l -0.131,-0.131 v -0.393 l 0.131,-0.131 h 1.702 l 0.132,0.131 0.392,2.096 1.048,0.654 h 3.276 l 1.047,-0.523 v -3.93 l -1.047,-0.656 h -1.835 z"
           style="fill:#48072c;fill-opacity:1;fill-rule:nonzero;stroke:none"
           id="path1542"
           inkscape:connector-curvature="0" /><path
           d="m 233.788,171.111 h -11.789 v 6.813 h 28.425 v -11.528 h -5.894 v 4.715 h -5.633 v -4.715 h -5.109 z M 221.999,157.75 v 6.811 h 9.432 l 5.108,-4.323 h 0.524 l 4.978,4.323 h 8.383 v -6.811 h -8.645 l -2.096,-1.703 v -0.131 h 10.741 v -6.812 h -8.383 l -4.978,4.193 h -0.524 l -5.108,-4.193 h -9.432 v 6.812 h 9.693 l 2.096,1.703 v 0.131 z"
           style="fill:#cccbcc;fill-opacity:1;fill-rule:nonzero;stroke:none"
           id="path1544"
           inkscape:connector-curvature="0" /><path
           d="m 378.406,165.74 h -0.131 v -0.523 l 0.131,-0.131 h 1.965 v -2.096 h -2.75 l -1.048,0.655 v 3.668 l 1.048,0.654 h 7.467 l 0.916,-0.524 v -3.929 l -0.916,-0.524 h -2.62 v 2.096 h 1.703 l 0.131,0.131 v 0.523 z m 7.598,-3.406 v -4.715 l -0.916,-0.656 h -2.62 l -0.917,0.787 h -0.132 l -1.048,-0.787 h -3.798 v 2.49 h 4.192 v 0.524 h -4.192 v 2.357 z m -3.798,-2.881 h 2.096 v 0.523 h -2.096 z m -1.572,-5.371 h -1.965 v -1.572 h -2.096 v 3.799 h 9.431 v -3.799 h -1.965 v 1.572 h -1.833 v -1.572 h -1.572 z m 5.37,-2.227 v -4.453 l -1.571,-0.918 h -6.288 l -1.572,1.049 v 4.322 z m -7.729,-2.357 v -0.523 l 0.131,-0.133 h 5.765 l 0.131,0.133 v 0.523 z m -1.702,-3.67 h 9.431 v -2.355 h -9.431 z m 7.466,-4.191 v 1.179 h 1.965 V 138.1 h -1.965 v 1.179 h -7.466 v 2.358 z m -7.466,-8.514 4.323,0.393 v 0.13 l -4.323,0.393 v 2.752 l 9.431,0.654 v -2.095 l -5.502,-0.393 v -0.131 l 5.502,-0.262 v -1.834 l -5.502,-0.392 v -0.131 l 5.502,-0.264 v -2.226 l -9.431,0.785 z m 8.515,-3.93 0.916,-0.656 v -4.06 l -0.916,-0.655 h -7.467 l -1.048,0.787 v 3.928 l 1.048,0.656 z m -6.682,-2.357 -0.131,-0.131 v -0.394 l 0.131,-0.131 h 5.765 l 0.131,0.131 v 0.394 l -0.131,0.131 z m 7.598,-3.668 v -4.586 l -0.916,-0.654 h -2.62 l -0.917,0.785 h -0.132 l -1.048,-0.785 h -3.798 v 2.357 h 4.061 l 0.131,0.131 v 0.523 h -4.192 v 2.229 z m -3.798,-2.229 v -0.654 h 1.965 l 0.131,0.131 v 0.523 z m 1.833,-4.845 v 1.179 h 1.965 v -4.716 h -1.965 v 1.179 h -7.466 v 2.358 z m -3.405,-6.549 h -4.061 v 2.355 h 9.431 v -2.355 h -3.798 v -0.656 h 3.798 v -2.358 h -9.431 v 2.358 h 4.061 z m 5.37,-5.897 h -1.965 l -2.488,-0.261 v -0.131 l 2.488,-0.262 h 1.965 v -2.226 h -1.048 l -5.763,1.308 h -2.62 v 2.49 h 2.62 l 5.763,1.311 h 1.048 z"
           style="fill:#dcdbdb;fill-opacity:1;fill-rule:nonzero;stroke:none"
           id="path1546"
           inkscape:connector-curvature="0" /><path
           d="m 112.225,677.538 v -0.656 h 3.013 v -2.358 h -4.846 v 1.835 l 0.392,0.392 -0.392,0.394 v 2.096 l 1.047,0.654 h 7.467 l 0.917,-0.654 v -4.192 l -0.917,-0.525 h -2.62 v 2.358 h 1.834 v 0.656 z m 2.227,-6.026 h -4.06 v 2.358 h 9.431 v -2.358 h -3.8 v -0.655 h 3.8 v -2.358 h -9.431 v 2.358 h 4.06 z m 4.454,-3.668 0.917,-0.524 v -4.06 l -0.917,-0.656 h -7.467 l -1.047,0.656 v 3.929 l 1.047,0.655 z m -6.681,-2.882 h 5.895 v 0.655 h -5.895 z m 4.716,-5.895 h 1.179 v 0.656 h -1.572 v -0.132 l -0.525,-2.095 -1.047,-0.656 h -3.537 l -1.047,0.656 v 3.798 l 1.047,0.655 h 2.097 v -2.226 h -1.311 v -0.656 h 1.834 l 0.524,2.097 0.917,0.785 h 3.406 l 0.917,-0.655 v -3.93 l -0.917,-0.524 h -1.965 z m 0.917,-4.192 v 1.311 h 1.965 v -4.847 h -1.965 v 1.309 h -7.466 v 2.227 z m -7.466,-8.383 4.322,0.393 v 0.13 l -4.322,0.394 v 2.751 l 9.431,0.654 v -2.226 l -5.371,-0.262 h -0.131 l 0.131,-0.132 5.371,-0.261 v -1.966 l -5.371,-0.261 -0.131,-0.131 h 0.131 l 5.371,-0.393 v -2.096 l -9.431,0.654 z m 9.431,-4.061 v -4.585 l -0.917,-0.655 h -2.489 l -1.048,0.787 h -0.131 l -1.048,-0.787 h -3.798 v 2.358 h 4.06 l 0.131,0.131 v 0.525 h -4.191 v 2.226 z m -3.8,-2.226 v -0.525 l 0.132,-0.131 h 1.965 v 0.656 z m -5.631,-3.669 h 9.431 v -2.358 h -9.431 z m 7.466,-4.192 v 1.179 h 1.965 v -4.716 h -1.965 v 1.179 h -7.466 v 2.358 z m -3.406,-6.418 h -1.965 v -1.572 h -2.095 v 3.799 h 9.431 v -3.799 h -1.965 v 1.572 h -1.835 v -1.572 h -1.571 z m 5.371,-2.227 v -4.716 l -0.917,-0.655 h -2.489 l -1.048,0.917 h -0.131 l -1.048,-0.917 h -3.798 v 2.488 h 4.191 v 0.525 h -4.191 v 2.358 z m -3.8,-2.883 h 2.096 v 0.524 h -2.096 z"
           style="fill:#7e0757;fill-opacity:1;fill-rule:nonzero;stroke:none"
           id="path1548"
           inkscape:connector-curvature="0" /><path
           d="m 148.641,702.427 0.394,-6.027 h 0.131 l 0.393,6.027 h 3.275 v -9.432 h -2.096 v 5.632 l -0.131,-0.13 -0.656,-5.502 h -1.702 l -0.656,5.502 -0.13,0.13 v -5.632 h -2.097 v 9.432 z m 9.956,-9.432 h -2.227 v 1.834 h -0.655 v -1.834 h -2.227 v 3.405 l 1.442,6.027 h 2.358 l 1.309,-6.027 z m -2.882,3.275 h 0.655 v 0.918 l -0.261,2.487 -0.394,-2.487 z m 6.944,6.157 0.654,-6.157 h 0.131 v 6.157 h 1.834 v -9.432 h -3.275 l -0.655,6.157 h -0.131 v -6.157 h -1.965 v 9.432 z m 8.383,-9.432 h -2.227 v 1.834 h -0.655 v -1.834 h -2.226 v 3.405 l 1.44,6.027 h 2.227 l 1.441,-6.027 z m -2.882,3.275 h 0.655 v 0.918 l -0.262,2.487 h -0.132 l -0.261,-2.487 z m 6.026,-1.441 h 0.524 v 3.144 h 2.488 v -4.978 h -1.833 l -0.394,0.393 h -0.131 l -0.392,-0.393 h -2.096 l -0.656,1.047 v 7.468 l 0.656,0.917 h 4.191 l 0.655,-0.917 v -2.62 h -2.488 v 1.833 h -0.524 z m 5.895,2.227 v -1.966 h 1.571 v -2.095 h -3.798 v 9.432 h 3.798 v -1.965 h -1.571 v -1.835 h 1.571 v -1.571 z m 5.502,5.371 0.392,-6.027 h 0.131 l 0.394,6.027 h 3.143 v -9.432 h -1.965 v 5.502 l -0.131,0.13 v -0.13 l -0.785,-5.502 h -1.573 l -0.786,5.502 v 0.13 l -0.131,-0.13 v -5.502 h -1.964 v 9.432 z m 7.073,-5.371 v -1.966 h 1.572 v -2.095 h -3.799 v 9.432 h 3.799 v -1.965 h -1.572 v -1.835 h 1.572 v -1.571 z m 5.502,5.371 0.655,-6.157 h 0.13 v 6.157 h 1.835 v -9.432 h -3.275 l -0.655,6.157 h -0.132 v -6.157 h -1.833 v 9.432 z m 4.585,-1.965 h -1.31 v 1.965 h 4.847 v -1.965 h -1.31 v -7.467 h -2.227 z"
           style="fill:#4a072d;fill-opacity:1;fill-rule:nonzero;stroke:none"
           id="path1550"
           inkscape:connector-curvature="0" /><path
           d="m 265.358,521.522 0.131,-0.13 h 0.393 l 0.131,0.13 v 3.014 h 2.358 v -4.978 h -1.834 l -0.393,0.524 -0.524,-0.524 h -1.965 L 263,520.605 v 7.467 l 0.524,0.918 h 4.191 l 0.656,-0.918 v -2.619 h -2.358 v 1.834 h -0.655 z m 3.668,6.55 0.655,0.918 h 4.061 l 0.523,-0.918 v -7.467 l -0.654,-1.047 h -3.93 l -0.655,1.047 z m 2.358,-6.55 v -0.13 h 0.524 l 0.13,0.13 v 5.765 h -0.654 z m 5.895,3.275 0.261,-2.488 0.262,2.488 v 4.193 h 2.359 v -3.406 l -1.442,-6.026 h -2.358 l -1.44,6.026 v 3.406 h 2.358 z m 5.763,-1.178 v -1.966 h 1.572 v -2.095 h -3.799 v 9.432 h 3.799 v -1.966 h -1.572 v -1.834 h 1.572 v -1.571 z m 2.227,5.371 h 4.585 l 0.656,-0.918 v -2.488 l -0.787,-1.048 v -0.131 l 0.787,-1.048 v -3.799 h -2.359 v 4.192 h -0.655 v -4.192 h -2.227 z m 2.227,-3.8 h 0.525 l 0.13,0.132 v 1.965 h -0.655 z m 7.074,3.8 0.655,-6.157 h 0.131 v 6.157 h 1.833 v -9.432 h -3.404 l -0.656,6.157 h -0.131 v -6.157 h -1.834 v 9.432 z m 6.55,0 0.392,-6.027 h 0.131 l 0.394,6.027 h 3.275 v -9.432 h -2.096 v 5.502 l -0.132,0.13 v -0.13 l -0.785,-5.502 h -1.572 l -0.786,5.502 v 0.13 l -0.131,-0.13 v -5.502 h -1.965 v 9.432 z m 7.073,-5.371 v -1.966 h 1.573 v -2.095 h -3.8 v 9.432 h 3.8 v -1.966 h -1.573 v -1.834 h 1.573 v -1.571 z m 5.502,5.371 0.656,-6.157 h 0.13 v 6.157 h 1.833 v -9.432 h -3.274 l -0.654,6.157 h -0.131 v -6.157 h -1.835 v 9.432 z m 4.584,-1.966 h -1.308 v 1.966 h 4.845 v -1.966 h -1.309 v -7.466 h -2.228 z"
           style="fill:#838182;fill-opacity:1;fill-rule:nonzero;stroke:none"
           id="path1552"
           inkscape:connector-curvature="0" /><path
           d="m 197.372,92.908 h 4.716 l 0.655,-0.918 v -2.488 l -0.917,-1.049 v -0.131 l 0.917,-1.047 v -3.798 h -2.49 v 4.191 h -0.523 v -4.191 h -2.358 z m 2.358,-3.801 h 0.523 v 2.098 h -0.523 z m 5.894,-1.57 v -1.965 h 1.572 v -2.095 h -3.799 v 9.431 h 3.799 v -1.965 h -1.572 v -1.836 h 1.572 v -1.57 z m 5.109,2.619 v 1.049 h -0.655 v -1.441 l 0.131,-0.131 1.965,-0.526 0.786,-0.916 v -3.668 l -0.655,-1.046 h -3.798 l -0.656,1.046 v 2.229 h 2.227 v -1.311 l 0.131,-0.13 h 0.394 l 0.13,0.13 v 1.704 h -0.13 l -1.965,0.523 -0.787,1.049 v 3.273 l 0.524,0.918 h 3.93 l 0.655,-0.918 v -1.834 z m 2.882,2.752 h 4.716 l 0.523,-0.918 V 87.668 L 218.2,86.752 h -2.227 v -3.275 h -2.358 z m 2.358,-4.455 h 0.655 v 2.752 h -0.655 z m 3.668,3.537 0.524,0.918 h 4.061 l 0.655,-0.918 v -7.467 l -0.655,-1.046 h -3.93 l -0.655,1.046 z m 2.226,-6.549 0.132,-0.13 h 0.524 v 5.894 h -0.656 z m 6.944,7.467 0.654,-6.027 0.131,-0.129 v 6.156 h 1.835 v -9.431 h -3.275 l -0.656,6.156 h -0.131 v -6.156 h -1.833 v 9.431 z m 6.156,-2.752 v 1.049 h -0.524 v -1.572 l 2.096,-0.526 0.786,-0.916 v -3.668 l -0.786,-1.046 h -3.668 l -0.786,1.046 v 2.229 h 2.358 v -1.441 h 0.524 v 1.834 l -2.096,0.523 -0.786,1.049 v 3.273 l 0.655,0.918 h 3.93 l 0.655,-0.918 v -1.834 z m 5.241,-6.679 h -2.227 v 9.432 h 2.227 z m 0.654,9.431 h 4.716 l 0.655,-0.918 v -2.883 l -0.524,-0.654 v -0.131 l 0.524,-0.654 v -3.145 l -0.786,-1.046 h -4.585 z m 2.358,-7.597 h 0.523 v 2.357 h -0.523 z m 0,3.796 h 0.523 v 2.098 h -0.523 z m 7.204,-3.535 v -2.095 h -3.537 v 9.431 h 2.227 v -7.336 z m 2.883,1.965 v -1.965 h 1.571 v -2.095 h -3.798 v 9.431 h 3.798 v -1.965 h -1.571 v -1.836 h 1.571 v -1.57 z"
           style="fill:#710850;fill-opacity:1;fill-rule:nonzero;stroke:none"
           id="path1554"
           inkscape:connector-curvature="0" /><path
           d="m 425.172,421.574 h 9.432 v -2.358 h -9.432 z m 9.432,-6.287 -6.158,-0.657 v -0.13 h 6.158 v -1.834 h -9.432 v 3.275 l 6.157,0.655 v 0.13 h -6.157 v 1.835 h 9.432 z m -4.192,-5.502 -2.489,-0.394 2.489,-0.263 h 4.192 v -2.226 h -3.406 l -6.026,1.31 v 2.358 l 6.026,1.441 h 3.406 v -2.226 z m -1.179,-5.896 h -1.965 v -1.572 h -2.096 v 3.931 h 9.432 v -3.931 h -1.965 v 1.572 h -1.834 v -1.572 h -1.572 z m 2.489,-5.108 h 1.178 v 0.654 h -1.571 l -0.524,-2.096 -1.048,-0.785 h -3.537 l -1.048,0.654 v 3.799 l 1.048,0.656 h 2.226 v -2.228 h -1.44 v -0.654 h 1.834 v 0.131 l 0.524,2.095 1.048,0.656 h 3.276 l 0.916,-0.525 v -3.93 l -0.916,-0.654 h -1.966 z m 0.917,-4.062 v 1.179 h 1.965 v -4.714 h -1.965 v 1.177 h -7.467 v 2.358 z m 1.965,-7.467 -6.027,-0.393 -0.131,-0.13 h 0.131 l 6.027,-0.393 v -3.275 h -9.432 v 2.095 h 5.633 l -0.131,0.131 -5.502,0.656 v 1.703 l 5.502,0.655 0.131,0.131 h -5.633 v 2.095 h 9.432 z m -5.371,-7.203 h -1.965 v -1.442 h -2.096 v 3.799 h 9.432 v -3.799 h -1.965 v 1.442 h -1.834 v -1.442 h -1.572 z m 5.371,-5.502 -6.158,-0.656 v -0.129 h 6.158 v -1.836 h -9.432 v 3.406 l 6.157,0.656 v 0.129 h -6.157 v 1.836 h 9.432 z m -1.965,-4.455 v 1.179 h 1.965 v -4.716 h -1.965 v 1.179 h -7.467 v 2.358 z"
           style="fill:#cccbcc;fill-opacity:1;fill-rule:nonzero;stroke:none"
           id="path1556"
           inkscape:connector-curvature="0" /><path
           d="m 364.128,313.109 -6.025,-0.392 v -0.131 l 6.025,-0.393 v -3.144 h -9.431 v 1.965 h 5.633 v 0.131 l -5.633,0.785 v 1.574 l 5.633,0.785 v 0.131 h -5.633 v 1.965 h 9.431 z m -5.37,-7.072 h -1.965 v -1.572 h -2.096 v 3.799 h 9.431 v -3.799 h -1.965 v 1.572 h -1.833 v -1.572 h -1.572 z m 5.37,-2.228 v -4.584 l -0.917,-0.657 h -2.489 l -1.048,0.787 h -0.13 l -0.918,-0.787 h -3.929 v 2.36 h 4.192 v 0.654 h -4.192 v 2.227 z m -3.798,-2.227 v -0.523 l 0.131,-0.131 h 1.965 v 0.654 z m -3.669,-5.894 -0.131,-0.131 v -0.524 h 2.096 v -2.226 h -2.881 l -1.048,0.654 v 3.799 l 1.048,0.654 h 7.466 l 0.917,-0.654 v -3.799 l -0.917,-0.654 h -2.489 v 2.226 h 1.704 v 0.655 z m -1.964,-8.647 v 2.229 h 1.833 v 0.654 h -1.833 v 2.226 h 3.406 l 6.025,-1.439 v -2.229 l -6.025,-1.441 z m 3.275,2.883 v -0.654 h 0.917 l 2.489,0.261 v 0.131 l -2.489,0.262 z m 6.156,-6.944 -6.025,-0.654 h -0.131 l 0.131,-0.131 h 6.025 v -1.834 h -9.431 v 3.407 l 6.157,0.654 v 0.131 h -6.157 v 1.834 h 9.431 z m -1.965,-4.453 v 1.18 h 1.965 v -4.717 h -1.965 v 1.18 h -7.466 v 2.357 z m -7.466,-4.191 h 9.431 v -2.357 h -9.431 z m 2.096,-6.551 h -2.096 v 3.537 h 9.431 v -2.357 h -7.335 z m 1.965,-2.881 h -1.965 v -1.572 h -2.096 v 3.799 h 9.431 v -3.799 h -1.965 v 1.572 h -1.833 v -1.572 h -1.572 z"
           style="fill:#1c0108;fill-opacity:1;fill-rule:nonzero;stroke:none"
           id="path1558"
           inkscape:connector-curvature="0" /><path
           d="m 391.769,315.73 v 1.311 h 1.964 v -4.848 h -1.964 v 1.311 h -7.467 v 2.226 z m 1.964,-4.191 v -4.586 l -0.917,-0.656 h -2.489 l -1.048,0.787 h -0.131 l -0.917,-0.787 h -3.929 v 2.359 h 4.191 v 0.655 h -4.191 v 2.228 z m -3.798,-2.228 v -0.524 l 0.13,-0.131 h 1.965 v 0.655 z m -1.573,-5.895 h -1.965 v -1.572 h -2.095 v 3.799 h 9.431 v -3.799 h -1.964 v 1.572 h -1.834 v -1.572 h -1.573 z m -4.06,-7.336 v 2.229 h 1.834 v 0.523 h -1.834 v 2.357 h 3.406 l 6.025,-1.441 v -2.357 l -6.025,-1.311 z m 3.274,2.752 v -0.523 h 0.917 l 2.489,0.259 -2.489,0.264 z m 3.406,-6.42 h 1.048 v 0.654 h -1.572 l -0.523,-2.095 -0.917,-0.785 h -3.668 l -1.048,0.656 v 3.797 l 1.048,0.656 h 2.226 v -2.229 h -1.44 v -0.523 l 0.131,-0.131 h 1.702 v 0.131 l 0.524,2.096 1.048,0.656 h 3.275 l 0.917,-0.524 v -3.929 l -0.917,-0.656 h -1.834 z m 2.751,-2.881 v -2.357 h -7.466 l -0.131,-0.133 v -0.393 l 0.131,-0.13 h 7.466 v -2.358 h -8.383 l -1.048,0.654 v 4.061 l 1.048,0.656 z m 0,-6.027 v -4.715 l -0.917,-0.523 h -2.489 l -1.048,0.785 h -0.131 l -0.917,-0.785 h -3.929 v 2.357 h 4.191 v 0.654 h -4.191 v 2.227 z m -3.798,-2.881 h 2.096 v 0.654 h -2.096 z m -5.633,-3.144 h 9.432 v -2.227 h -9.432 z m 4.06,-5.239 h -1.965 v -1.441 h -2.095 v 3.799 h 9.431 v -3.799 h -1.964 v 1.441 h -1.834 v -1.441 h -1.573 z m 2.62,-4.978 h 1.048 v 0.523 h -1.572 l -0.523,-2.096 -0.917,-0.785 h -3.668 l -1.048,0.785 v 3.668 l 1.048,0.788 h 2.226 v -2.36 h -1.44 v -0.523 h 1.833 l 0.524,2.095 1.048,0.788 h 3.275 l 0.917,-0.657 v -3.929 l -0.917,-0.655 h -1.834 z"
           style="fill:#737071;fill-opacity:1;fill-rule:nonzero;stroke:none"
           id="path1560"
           inkscape:connector-curvature="0" /><path
           d="m 312.518,66.314 v 1.049 h -0.657 v -1.572 l 2.096,-0.523 0.787,-0.916 v -3.67 l -0.656,-1.047 h -3.799 l -0.786,1.047 v 2.228 h 2.358 v -1.441 h 0.525 l 0.132,0.131 v 1.703 h -0.132 l -2.097,0.525 -0.786,1.047 v 3.275 l 0.655,0.916 h 3.93 l 0.656,-0.916 v -1.836 z m 2.88,2.752 h 2.358 V 61.6 l 0.132,-0.131 h 0.391 l 0.132,0.131 v 7.466 h 2.359 v -8.384 l -0.655,-1.047 h -4.062 l -0.655,1.047 z m 6.026,0 h 4.716 l 0.524,-0.916 v -2.49 l -0.787,-1.047 v -0.131 l 0.787,-1.048 v -3.799 h -2.357 v 4.193 h -0.657 v -4.193 h -2.226 z m 2.226,-3.798 h 0.656 v 2.096 h -0.656 z m 6.027,-3.668 v -0.131 h 0.523 l 0.132,0.131 v 1.964 h 2.096 v -2.882 l -0.655,-1.047 h -3.669 l -0.654,1.047 v 7.468 l 0.523,0.916 h 3.931 l 0.524,-0.916 v -2.49 h -2.096 v 1.703 h -0.655 z m 5.764,2.095 v -4.06 h -2.358 v 9.431 h 2.358 v -3.798 h 0.655 v 3.798 h 2.357 v -9.431 h -2.357 v 4.06 z m 8.777,-4.06 h -2.228 v 1.834 h -0.655 v -1.834 h -2.227 v 3.406 l 1.442,6.025 h 2.226 l 1.442,-6.025 z m -2.883,3.275 h 0.655 v 0.918 l -0.261,2.486 h -0.131 l -0.263,-2.486 z m 3.537,6.156 h 4.716 l 0.523,-0.916 v -2.49 l -0.785,-1.047 v -0.131 l 0.785,-1.048 v -3.799 h -2.357 v 4.193 H 347.1 v -4.193 h -2.228 z m 2.228,-3.798 h 0.654 v 2.096 H 347.1 Z m 6.156,-3.668 v -0.131 h 0.524 v 3.144 h 2.49 v -4.978 h -1.835 l -0.393,0.523 h -0.131 l -0.393,-0.523 h -1.965 l -0.785,1.047 v 7.468 l 0.654,0.916 h 4.191 l 0.657,-0.916 v -2.49 h -2.49 v 1.703 h -0.524 z m 5.894,2.095 V 61.73 h 1.572 v -2.095 h -3.798 v 9.431 h 3.798 v -1.964 h -1.572 v -1.834 h 1.572 v -1.573 z"
           style="fill:#757273;fill-opacity:1;fill-rule:nonzero;stroke:none"
           id="path1562"
           inkscape:connector-curvature="0" /><path
           d="m 193.18,147.008 h -1.966 v -1.57 h -2.095 v 3.796 h 9.563 v -3.796 h -1.966 v 1.57 h -1.833 v -1.57 h -1.703 z m -2.096,-4.453 h -0.131 v -0.524 l 0.131,-0.131 h 1.965 v -2.095 h -2.751 l -1.179,0.654 v 3.668 l 1.179,0.654 h 7.336 l 1.048,-0.523 v -3.93 l -1.048,-0.523 h -2.489 v 2.095 h 1.703 l 0.131,0.131 v 0.524 z m 6.55,-3.407 1.048,-0.654 v -4.06 l -1.048,-0.657 h -7.336 l -1.179,0.657 v 3.929 l 1.179,0.785 z m -6.55,-2.357 -0.131,-0.131 v -0.392 l 0.131,-0.133 h 5.764 l 0.131,0.133 v 0.392 l -0.131,0.131 z m 7.598,-6.943 -6.158,-0.655 -0.13,-0.13 h 6.288 v -1.834 h -9.563 v 3.273 l 6.157,0.656 0.131,0.131 h -6.288 v 1.834 h 9.563 z m -1.048,-3.276 1.048,-0.654 v -4.061 l -1.048,-0.654 h -7.336 l -1.179,0.785 v 3.93 l 1.179,0.654 z m -6.55,-2.357 -0.131,-0.131 v -0.393 l 0.131,-0.13 h 5.764 l 0.131,0.13 v 0.393 l -0.131,0.131 z m 7.598,-6.942 -6.026,-0.394 h -0.132 l 0.132,-0.131 6.026,-0.262 v -3.275 h -9.563 v 1.965 h 5.632 v 0.131 l -5.632,0.787 v 1.572 l 5.632,0.785 v 0.131 h -5.632 v 1.967 h 9.563 z m -9.563,-4.847 h 9.563 v -2.227 h -9.563 z m 1.965,-5.24 h -0.131 v -0.524 h 2.096 v -2.226 h -2.751 l -1.179,0.654 v 3.799 l 1.179,0.656 h 7.336 l 1.048,-0.656 v -3.799 l -1.048,-0.654 h -2.489 v 2.226 h 1.834 v 0.524 z m 4.715,-6.288 h 1.18 v 0.524 l -0.131,0.131 h -1.441 l -0.131,-0.131 -0.393,-2.096 -1.048,-0.654 h -3.537 l -1.179,0.654 v 3.799 l 1.179,0.654 h 2.096 v -2.226 h -1.31 l -0.131,-0.131 v -0.524 h 1.965 l 0.394,2.096 1.047,0.785 h 3.275 l 1.048,-0.654 v -3.93 l -1.048,-0.523 h -1.835 z"
           style="fill:#7a0855;fill-opacity:1;fill-rule:nonzero;stroke:none"
           id="path1564"
           inkscape:connector-curvature="0" /><path
           d="m 199.074,217.484 0.656,0.916 h 4.061 l 0.654,-0.916 v -7.466 l -0.786,-1.049 h -3.798 l -0.787,1.049 z m 2.359,-6.681 h 0.655 v 5.895 h -0.655 z m 5.895,3.406 0.261,-2.488 h 0.131 l 0.262,2.488 v 4.191 h 2.227 v -3.406 l -1.441,-6.025 h -2.227 l -1.44,6.025 v 3.406 h 2.227 z m 5.763,-1.18 v -1.965 h 1.572 v -2.095 h -3.799 v 9.431 h 3.799 v -1.964 h -1.572 v -1.834 h 1.572 v -1.573 z m 2.226,5.371 h 4.717 l 0.524,-0.916 v -2.49 l -0.787,-1.047 v -0.131 l 0.787,-1.048 v -3.799 H 218.2 v 4.191 h -0.656 v -4.191 h -2.227 z m 2.227,-3.798 h 0.656 v 2.096 h -0.656 z m 3.8,3.798 h 4.454 l 0.917,-1.441 v -6.418 l -1.048,-1.572 h -4.323 z m 2.358,-7.597 h 0.523 v 5.895 h -0.523 z m 3.667,7.597 h 4.585 l 0.656,-0.916 v -2.49 l -0.787,-1.047 v -0.131 l 0.787,-1.048 v -3.799 h -2.358 v 4.06 l -0.131,0.131 h -0.525 v -4.191 h -2.227 z m 2.227,-3.798 h 0.525 l 0.131,0.13 v 1.965 h -0.656 z m 8.777,-5.633 h -2.227 v 1.834 h -0.523 v -1.834 h -2.359 v 3.406 l 1.442,6.025 h 2.357 l 1.31,-6.025 z m -2.75,3.275 h 0.523 v 0.916 l -0.261,2.488 -0.262,-2.488 z m 5.764,0.654 v -3.929 h -2.227 v 9.431 h 3.798 v -1.964 h -1.571 v -1.834 h 1.571 v -1.704 z m 3.405,3.538 h -1.18 v 1.964 h 4.717 v -1.964 h -1.18 v -7.467 h -2.357 z"
           style="fill:#7e7c7c;fill-opacity:1;fill-rule:nonzero;stroke:none"
           id="path1566"
           inkscape:connector-curvature="0" /><path
           d="m 70.831,559.38 h 4.454 l 0.917,-1.441 v -6.418 l -1.048,-1.573 h -4.323 z m 2.358,-7.597 h 0.655 v 5.895 h -0.655 z m 5.894,2.227 v -1.966 h 1.573 v -2.096 h -3.8 v 9.432 h 3.8 v -1.964 h -1.573 v -1.835 h 1.573 v -1.571 z m 2.227,5.37 h 4.716 l 0.524,-0.916 v -2.883 l -0.393,-0.654 v -0.132 l 0.393,-0.654 v -3.145 l -0.655,-1.048 H 81.31 Z m 2.227,-7.597 h 0.656 v 2.358 h -0.656 z m 0,3.798 h 0.656 v 2.096 h -0.656 z m 6.026,-1.571 v -1.966 h 1.572 v -2.096 h -3.929 v 9.432 h 3.929 v -1.964 h -1.572 v -1.835 h 1.572 v -1.571 z m 5.502,5.37 0.655,-6.157 h 0.131 v 6.157 h 1.834 v -9.432 H 94.41 l -0.655,6.157 h -0.131 v -6.157 h -1.833 v 9.432 z m 4.453,-1.964 H 98.34 v 1.964 h 4.715 v -1.964 h -1.179 v -7.468 h -2.358 z m 4.193,1.964 h 2.488 v -7.597 h 0.525 v 7.597 h 2.489 v -8.384 l -0.656,-1.048 h -4.06 l -0.786,1.048 z m 6.156,0 h 4.585 l 0.655,-0.916 v -2.489 l -0.786,-1.048 v -0.132 l 0.786,-1.047 v -3.8 h -2.358 v 4.062 l -0.131,0.131 h -0.524 v -4.193 h -2.227 z m 2.227,-3.799 h 0.524 l 0.131,0.131 v 1.965 h -0.655 z m 5.895,-1.571 v -1.966 h 1.572 v -2.096 h -3.799 v 9.432 h 3.799 v -1.964 h -1.572 v -1.835 h 1.572 v -1.571 z"
           style="fill:#cfcece;fill-opacity:1;fill-rule:nonzero;stroke:none"
           id="path1568"
           inkscape:connector-curvature="0" /><path
           d="m 125.717,692.863 -0.13,-0.13 v -0.524 h 2.096 v -2.227 h -2.751 l -1.18,0.656 v 3.798 l 1.18,0.654 h 7.466 l 0.918,-0.654 v -3.798 l -0.918,-0.656 h -2.619 v 2.227 h 1.833 v 0.524 l -0.131,0.13 z m 6.681,-3.535 0.918,-0.525 v -4.061 l -0.918,-0.654 h -7.466 l -1.18,0.654 v 3.93 l 1.18,0.656 z m -6.681,-2.359 h -0.13 v -0.524 h 6.025 v 0.524 z m 7.599,-6.812 -6.026,-0.393 -0.132,-0.13 h 0.132 l 6.026,-0.393 v -3.275 h -9.564 v 2.096 h 5.633 v 0.131 l -5.633,0.654 v 1.704 l 5.633,0.654 v 0.131 h -5.633 v 2.096 h 9.564 z m 0,-8.121 -6.026,-0.393 -0.132,-0.131 h 0.132 l 6.026,-0.393 v -3.275 h -9.564 v 2.095 h 5.633 v 0.131 l -5.633,0.656 v 1.703 l 5.633,0.655 v 0.13 h -5.633 v 2.097 h 9.564 z m -5.502,-7.074 h -1.966 v -1.572 h -2.096 v 3.799 h 9.564 v -3.799 h -1.966 v 1.572 h -1.833 v -1.572 h -1.703 z m 5.502,-2.227 v -4.716 l -0.918,-0.523 h -2.619 l -0.917,0.785 h -0.131 l -1.048,-0.785 h -3.931 v 2.358 h 4.323 v 0.654 h -4.323 v 2.227 z m -3.799,-2.881 h 2.096 v 0.655 h -2.096 z m -3.8,-5.371 h -0.13 v -0.525 l 0.13,-0.131 h 1.966 v -2.096 h -2.751 l -1.18,0.656 v 3.667 l 1.18,0.656 h 7.466 l 0.918,-0.524 v -3.93 l -0.918,-0.525 h -2.619 v 2.096 h 1.702 l 0.131,0.131 v 0.525 z m 2.097,-5.764 h -1.966 v -1.442 h -2.096 v 3.8 h 9.564 v -3.8 h -1.966 v 1.442 h -1.833 v -1.442 h -1.703 z"
           style="fill:#270312;fill-opacity:1;fill-rule:nonzero;stroke:none"
           id="path1570"
           inkscape:connector-curvature="0" /><path
           d="m 67.688,579.161 0.392,-6.026 h 0.131 l 0.393,6.026 h 3.275 v -9.432 h -2.096 v 5.632 h -0.131 l -0.655,-5.632 h -1.703 l -0.655,5.632 h -0.131 v -5.632 h -2.095 v 9.432 z m 7.072,-5.371 v -1.966 h 1.573 v -2.095 h -3.799 v 9.432 h 3.799 v -1.966 H 74.76 v -1.702 h 1.573 v -1.703 z m 2.227,5.371 h 4.717 l 0.654,-0.918 v -2.488 l -0.917,-1.048 v -0.131 l 0.917,-0.917 v -3.93 h -2.489 v 4.191 h -0.523 v -4.191 h -2.359 z m 2.359,-3.668 h 0.523 v 1.965 h -0.523 z m 5.895,-3.8 v -0.13 h 0.523 l 0.131,0.13 v 1.966 h 2.096 v -2.883 l -0.655,-1.047 h -3.668 l -0.654,1.047 v 7.467 l 0.523,0.918 h 3.931 l 0.523,-0.918 v -2.488 h -2.096 v 1.703 h -0.654 z m 5.763,2.097 v -4.061 h -2.358 v 9.432 h 2.358 v -3.668 h 0.655 v 3.668 h 2.359 v -9.432 h -2.359 v 4.061 z m 8.776,-4.061 h -2.227 v 1.834 h -0.654 v -1.834 h -2.227 v 3.406 l 1.441,6.026 h 2.227 l 1.44,-6.026 z m -2.881,3.274 h 0.654 v 0.917 l -0.261,2.49 h -0.131 l -0.262,-2.49 z m 6.812,6.158 0.654,-6.026 0.132,-0.132 v 6.158 h 1.964 v -9.432 h -3.406 l -0.654,6.157 h -0.131 v -6.157 h -1.834 v 9.432 z m 4.584,-1.966 h -1.178 v 1.966 h 4.715 v -1.966 h -1.179 v -7.466 h -2.358 z"
           style="fill:#d0cfcf;fill-opacity:1;fill-rule:nonzero;stroke:none"
           id="path1572"
           inkscape:connector-curvature="0" /><path
           d="m 377.621,316.254 v -4.715 l -0.917,-0.656 h -2.489 l -1.048,0.785 h -0.131 l -1.048,-0.785 h -3.799 v 2.488 h 4.192 v 0.524 h -4.192 v 2.359 z m -3.8,-2.883 h 2.097 v 0.523 h -2.097 z m -1.571,-5.369 h -1.965 v -1.572 h -2.096 v 3.799 h 9.432 v -3.799 h -1.965 v 1.572 h -1.835 v -1.572 h -1.571 z m 1.18,-4.455 -2.49,-0.262 v -0.131 l 2.49,-0.261 h 4.191 v -2.227 h -3.406 l -6.026,1.439 v 2.227 l 6.026,1.441 h 3.406 v -2.226 z m 3.274,-3.537 0.917,-0.655 v -4.06 l -0.917,-0.524 h -7.467 l -1.048,0.655 v 3.929 l 1.048,0.655 z m -6.681,-3.012 h 5.895 v 0.654 h -5.895 z m 0.262,-6.551 h -2.096 v 3.537 h 9.432 v -2.226 h -7.336 z m 3.145,-2.881 -2.49,-0.261 v -0.131 l 2.49,-0.264 h 4.191 v -2.226 h -3.406 l -6.026,1.441 v 2.357 l 6.026,1.311 h 3.406 v -2.227 z m -5.241,-3.537 h 9.432 v -2.357 h -9.432 z m 9.432,-6.287 -6.156,-0.656 v -0.131 h 6.156 v -1.834 h -9.432 v 3.275 l 6.157,0.655 v 0.131 h -6.157 v 1.834 h 9.432 z m -7.598,-5.633 v -0.656 h 3.144 v -2.357 h -4.978 v 1.834 l 0.524,0.392 -0.524,0.393 v 2.096 l 1.048,0.656 h 7.467 l 0.917,-0.656 v -4.192 l -0.917,-0.523 h -2.62 v 2.357 h 1.834 v 0.656 z"
           style="fill:#7e0757;fill-opacity:1;fill-rule:nonzero;stroke:none"
           id="path1574"
           inkscape:connector-curvature="0" /><path
           d="m 69.652,592.915 v -4.061 h -2.358 v 9.563 h 2.358 v -3.8 h 0.655 v 3.8 h 2.227 v -9.563 h -2.227 v 4.061 z m 5.894,-4.061 h -2.357 v 9.562 h 2.357 z m 3.014,1.965 0.131,-0.131 h 0.523 v 3.144 h 2.358 v -4.978 h -1.833 l -0.393,0.524 -0.394,-0.524 h -2.096 l -0.654,1.179 v 7.336 l 0.654,1.048 h 4.192 l 0.524,-1.048 v -2.49 h -2.358 v 1.835 h -0.523 l -0.131,-0.131 z m 6.025,2.096 v -4.061 h -2.358 v 9.563 h 2.358 v -3.8 h 0.656 v 3.8 h 2.357 v -9.563 h -2.357 v 4.061 z m 3.668,1.702 h 2.358 v -1.702 h -2.358 z m 5.24,3.8 v -1.965 l 0.393,-2.489 v -0.131 0.131 l 0.261,2.489 v 1.965 h 2.358 v -1.179 l -1.44,-5.764 v -2.62 h -2.358 v 2.62 l -1.441,5.764 v 1.179 z m 5.895,-9.563 h -2.227 v 9.562 h 2.227 z m 3.013,4.061 v -1.965 h 1.441 v -2.096 h -3.8 v 9.563 h 3.8 v -1.965 h -1.441 v -1.835 h 1.441 v -1.702 z m 5.633,-1.965 v -2.096 h -3.537 v 9.563 h 2.357 v -7.467 z m 0.654,7.467 h 4.585 l 0.917,-1.573 v -6.287 l -1.048,-1.703 h -4.454 z m 2.489,-7.729 h 0.523 v 6.026 h -0.523 z"
           style="fill:#827f80;fill-opacity:1;fill-rule:nonzero;stroke:none"
           id="path1576"
           inkscape:connector-curvature="0" /><path
           d="m 79.214,603.264 h -2.227 v 1.834 h -0.654 v -1.834 h -2.227 v 3.405 l 1.44,6.026 h 2.227 l 1.441,-6.026 z m -2.881,3.144 h 0.654 v 1.048 l -0.262,2.488 h -0.131 l -0.261,-2.488 z m 5.894,-1.31 h 0.524 v 2.095 h 2.228 v -2.881 l -0.656,-1.048 h -3.667 l -0.787,1.048 v 7.466 l 0.655,0.917 h 3.799 l 0.656,-0.917 v -2.62 h -2.228 v 1.834 h -0.524 z m 5.633,0 h 0.656 v 2.095 h 2.227 v -2.881 l -0.656,-1.048 h -3.798 l -0.656,1.048 v 7.466 l 0.656,0.917 h 3.798 l 0.656,-0.917 v -2.62 h -2.227 v 1.834 H 87.86 Z m 3.537,6.68 0.655,0.917 h 4.061 l 0.524,-0.917 v -7.466 l -0.655,-1.048 h -3.93 l -0.655,1.048 z m 2.358,-6.68 h 0.523 v 5.894 h -0.523 z m 3.537,7.597 h 2.488 v -7.597 h 0.525 v 7.597 h 2.488 v -8.383 l -0.786,-1.048 h -4.06 l -0.655,1.048 z m 9.432,0 0.654,-6.156 h 0.131 v 6.156 h 1.834 v -9.431 h -3.275 l -0.655,6.025 -0.131,0.131 v -6.156 h -1.833 v 9.431 z m 4.453,-1.965 h -1.178 v 1.965 h 4.715 v -1.965 h -1.178 v -7.466 h -2.359 z m 7.205,-0.916 v 1.178 h -0.655 v -1.572 l 2.096,-0.524 0.785,-1.048 v -3.536 l -0.654,-1.048 h -3.799 l -0.655,1.048 v 2.096 h 2.227 v -1.31 h 0.655 v 1.833 h -0.132 l -2.095,0.525 -0.655,0.917 v 3.405 l 0.523,0.917 h 3.931 l 0.654,-0.917 v -1.964 z"
           style="fill:#48072c;fill-opacity:1;fill-rule:nonzero;stroke:none"
           id="path1578"
           inkscape:connector-curvature="0" /><path
           d="m 214.139,174.123 v -4.584 l -0.917,-0.654 h -2.751 l -0.785,0.523 h -0.131 l -0.656,-0.523 h -3.144 l -1.047,0.654 v 4.584 z m -5.24,-2.225 h -2.358 v -0.525 l 0.131,-0.131 h 2.227 z m 1.572,0 v -0.656 h 1.965 l 0.131,0.131 v 0.525 z m -5.763,-8.777 v 2.227 h 1.833 v 0.654 h -1.833 v 2.228 h 3.537 l 5.894,-1.441 v -2.228 l -5.894,-1.44 z m 3.274,2.881 v -0.654 h 0.917 l 2.489,0.261 v 0.131 l -2.489,0.262 z m 6.157,-6.941 -6.026,-0.657 h -0.131 l 0.131,-0.131 h 6.026 v -1.834 h -9.431 v 3.407 l 6.156,0.654 h 0.131 l -0.131,0.133 h -6.156 v 1.832 h 9.431 z m -5.109,-5.502 h -4.322 v 2.226 h 9.431 v -2.226 h -3.799 l 0.786,-0.657 h 3.013 v -2.226 h -2.751 l -1.702,1.441 h -0.131 l -1.704,-1.441 h -3.143 v 2.226 h 3.405 z m 5.109,-6.813 -6.026,-0.654 -0.131,-0.131 h 6.157 v -1.834 h -9.431 v 3.275 l 6.156,0.655 h 0.131 l -0.131,0.131 h -6.156 v 1.833 h 9.431 z m -0.917,-3.404 0.917,-0.526 v -4.06 l -0.917,-0.656 h -7.467 l -1.047,0.656 v 3.93 l 1.047,0.656 z m -6.55,-2.229 -0.131,-0.131 v -0.523 h 6.026 v 0.523 l -0.131,0.131 z m 5.633,-4.845 v 1.177 h 1.834 v -4.715 h -1.834 v 1.178 h -7.597 v 2.36 z m -3.537,-6.551 h -1.965 v -1.442 h -2.095 v 3.799 h 9.431 v -3.799 h -1.834 v 1.442 h -1.834 v -1.442 h -1.703 z"
           style="fill:#510732;fill-opacity:1;fill-rule:nonzero;stroke:none"
           id="path1580"
           inkscape:connector-curvature="0" /><path
           d="m 146.415,308.918 v -1.965 h 1.572 v -2.096 h -3.799 v 9.563 h 3.799 v -1.965 h -1.572 v -1.834 h 1.572 v -1.703 z m 4.453,-4.061 h -2.227 v 3.276 l 1.442,1.701 v 0.133 l -1.442,1.701 v 2.752 h 2.227 v -2.881 l 0.656,-0.787 v 3.668 h 2.226 v -2.752 l -1.44,-1.701 v -0.133 l 1.44,-1.701 v -3.276 h -2.226 v 3.276 l -0.525,0.654 h -0.131 z m 3.537,9.563 h 4.717 l 0.654,-1.049 v -4.191 l -0.786,-1.047 h -2.227 v -3.276 h -2.358 z m 2.358,-4.586 h 0.525 l 0.13,0.133 v 2.619 l -0.13,0.131 h -0.525 z m 5.896,-0.916 v -1.965 h 1.571 v -2.096 h -3.798 v 9.563 h 3.798 v -1.965 h -1.571 v -1.834 h 1.571 v -1.703 z m 5.501,5.502 0.655,-6.156 0.131,-0.131 v 6.287 h 1.834 v -9.563 h -3.275 l -0.655,6.157 -0.131,0.131 v -6.288 h -1.834 v 9.563 z m 6.157,-2.881 v 1.178 h -0.525 v -1.703 l 2.097,-0.393 0.654,-1.049 v -3.535 l -0.654,-1.18 h -3.799 l -0.655,1.18 v 2.096 h 2.357 v -1.442 h 0.525 v 1.965 l -2.096,0.524 -0.786,0.918 v 3.273 l 0.655,1.049 h 3.929 l 0.524,-1.049 v -1.832 z m 5.239,-6.682 h -2.227 v 9.563 h 2.227 z m 3.013,5.372 0.262,-2.491 v -0.131 0.131 l 0.262,2.491 v 4.191 h 2.227 v -3.537 l -1.31,-6.026 h -2.358 l -1.44,6.026 v 3.537 h 2.357 z m 5.764,-1.311 v -1.965 h 1.572 v -2.096 h -3.799 v 9.563 h 3.799 v -1.965 h -1.572 v -1.834 h 1.572 v -1.703 z"
           style="fill:#7f0757;fill-opacity:1;fill-rule:nonzero;stroke:none"
           id="path1582"
           inkscape:connector-curvature="0" /><path
           d="m 314.219,126.967 h -1.179 v 1.965 h 4.716 v -1.965 h -1.178 V 119.5 h -2.359 z m 4.192,1.965 h 4.716 l 0.654,-0.918 v -2.619 l -0.916,-0.918 v -0.131 l 0.916,-1.047 V 119.5 h -2.488 v 4.191 H 320.77 V 119.5 h -2.359 z m 2.359,-3.799 h 0.523 v 2.096 h -0.523 z m 5.894,-1.572 v -1.965 h 1.571 V 119.5 h -3.797 v 9.432 h 3.797 v -1.965 h -1.571 v -1.834 h 1.571 v -1.572 z M 334,119.5 h -2.227 v 1.834 h -0.655 V 119.5 h -2.227 v 3.404 l 1.441,6.028 h 2.227 L 334,122.904 Z m -2.882,3.145 h 0.655 v 1.046 l -0.263,2.358 -0.131,0.131 v -0.131 l -0.261,-2.358 z m 6.419,3.404 v 1.18 h -0.524 l -0.132,-0.131 v -1.442 h 0.132 l 2.095,-0.523 0.656,-1.049 v -3.535 l -0.656,-1.049 h -3.798 l -0.656,1.049 v 2.096 h 2.227 v -1.311 h 0.656 v 1.834 l -2.096,0.523 -0.787,0.918 v 3.405 l 0.656,0.918 h 3.929 l 0.525,-0.918 v -1.965 z m 2.881,2.883 h 2.489 v -7.598 h 0.656 v 7.598 h 2.357 v -8.383 l -0.654,-1.049 h -4.062 l -0.786,1.049 z m 6.156,0 h 4.586 l 0.655,-0.918 v -2.619 l -0.787,-0.918 v -0.131 l 0.787,-1.047 V 119.5 h -2.358 v 4.061 l -0.131,0.13 h -0.524 V 119.5 h -2.228 z m 2.228,-3.799 h 0.655 v 1.965 l -0.131,0.131 h -0.524 z m 5.895,3.799 v -1.965 l 0.262,-2.49 h 0.131 l 0.262,2.49 v 1.965 h 2.226 v -1.049 l -1.308,-5.764 V 119.5 h -2.359 v 2.619 l -1.441,5.764 v 1.049 z"
           style="fill:#4f0731;fill-opacity:1;fill-rule:nonzero;stroke:none"
           id="path1584"
           inkscape:connector-curvature="0" /><path
           d="m 391.899,589.902 v -4.585 l -1.047,-0.654 H 388.1 l -0.655,0.523 h -0.131 l -0.786,-0.523 h -3.012 l -1.179,0.654 v 4.585 z m -5.371,-2.227 h -2.357 v -0.524 l 0.131,-0.131 h 2.226 z m 1.572,0 v -0.655 h 1.965 l 0.131,0.131 v 0.524 z m -5.763,-8.777 v 2.227 h 1.834 v 0.655 h -1.834 v 2.227 h 3.536 l 6.026,-1.44 v -2.227 l -6.026,-1.442 z m 3.275,2.882 v -0.655 h 0.916 l 2.49,0.263 h 0.13 l -0.13,0.13 -2.49,0.262 z m 6.287,-6.942 -6.156,-0.655 h -0.131 l 0.131,-0.132 h 6.156 v -1.833 h -9.562 v 3.406 l 6.156,0.654 h 0.132 l -0.132,0.132 h -6.156 v 1.833 h 9.562 z m -5.239,-5.502 h -4.323 v 2.227 h 9.562 v -2.227 h -3.93 l 0.787,-0.655 h 3.143 v -2.227 h -2.881 l -1.573,1.441 h -0.131 l -1.702,-1.441 h -3.275 v 2.227 h 3.536 z m 5.239,-3.537 v -4.716 l -1.047,-0.523 h -2.49 l -0.917,0.785 h -0.131 l -1.047,-0.785 h -3.93 v 2.357 h 4.191 v 0.655 h -4.191 v 2.227 z m -3.799,-2.882 h 2.097 v 0.655 H 388.1 Z m 2.752,-3.013 1.047,-0.654 v -4.061 l -1.047,-0.656 h -7.336 l -1.179,0.656 v 3.929 l 1.179,0.786 z m -6.55,-2.358 -0.131,-0.13 v -0.394 l 0.131,-0.131 h 5.763 l 0.131,0.131 v 0.394 l -0.131,0.13 z m 0.131,-7.204 h -2.096 v 3.537 h 9.562 v -2.358 h -7.466 z m 0,-4.192 h -2.096 v 3.537 h 9.562 v -2.358 h -7.466 z"
           style="fill:#560835;fill-opacity:1;fill-rule:nonzero;stroke:none"
           id="path1586"
           inkscape:connector-curvature="0" /><path
           d="m 105.676,659.067 v -4.715 l -0.917,-0.525 h -2.883 l -0.654,0.394 h -0.132 l -0.654,-0.394 h -3.144 l -1.049,0.656 v 4.584 z m -5.24,-2.227 h -2.358 v -0.654 h 2.358 z m 1.44,-0.654 h 2.096 v 0.654 h -2.096 z m 3.8,-3.144 v -2.358 h -7.598 v -0.655 h 7.598 v -2.358 h -8.384 l -1.049,0.655 v 4.061 l 1.049,0.655 z m -2.883,-8.908 h 1.179 v 0.656 h -1.571 v -0.132 l -0.525,-1.966 -1.048,-0.785 h -3.536 l -1.049,0.656 v 3.798 l 1.049,0.654 h 2.226 v -2.225 h -1.44 v -0.656 h 1.834 v 0.131 l 0.524,1.964 1.048,0.786 h 3.275 l 0.917,-0.654 v -3.93 l -0.917,-0.524 h -1.966 z m -6.55,-2.882 h 9.433 v -2.358 h -9.433 z m 9.433,-6.287 -6.158,-0.656 v -0.131 h 6.158 v -1.834 h -9.433 v 3.275 l 6.158,0.655 v 0.131 h -6.158 v 1.835 h 9.433 z m -5.371,-5.633 H 98.34 v -1.441 h -2.097 v 3.799 h 9.433 v -3.799 h -1.965 v 1.441 h -1.835 v -1.441 h -1.571 z m 2.488,-4.978 h 1.179 v 0.524 h -1.571 l -0.525,-2.096 -1.048,-0.786 h -3.536 l -1.049,0.655 v 3.798 l 1.049,0.787 h 2.226 v -2.358 h -1.44 v -0.524 h 1.834 l 0.524,2.095 1.048,0.787 h 3.275 l 0.917,-0.655 v -3.93 l -0.917,-0.655 h -1.966 z m 0,-5.895 h 1.179 v 0.655 h -1.571 l -0.525,-2.096 -1.048,-0.786 h -3.536 l -1.049,0.655 v 3.799 l 1.049,0.655 h 2.226 v -2.227 h -1.44 v -0.655 h 1.834 v 0.131 l 0.524,2.096 1.048,0.655 h 3.275 l 0.917,-0.525 v -3.929 l -0.917,-0.655 h -1.966 z"
           style="fill:#7a7778;fill-opacity:1;fill-rule:nonzero;stroke:none"
           id="path1588"
           inkscape:connector-curvature="0" /><path
           d="m 149.428,287.174 0.523,0.916 h 4.062 l 0.654,-0.916 v -7.467 l -0.654,-1.049 h -3.93 l -0.655,1.049 z m 2.227,-6.682 h 0.655 v 5.895 h -0.655 z m 3.667,7.598 h 4.716 l 0.525,-0.916 v -4.324 l -0.656,-0.916 h -2.227 v -3.276 h -2.358 z m 2.358,-4.453 h 0.656 v 2.75 h -0.656 z m 5.895,-0.918 v -1.965 h 1.441 v -2.096 h -3.799 v 9.432 h 3.799 v -1.965 h -1.441 v -1.834 h 1.441 v -1.572 z m 5.502,5.371 0.654,-6.156 h 0.132 v 6.156 h 1.833 v -9.432 h -3.275 l -0.654,6.156 h -0.262 v -6.156 h -1.834 v 9.432 z m 3.275,-3.799 h 2.358 v -1.572 h -2.358 z m 5.371,-1.572 v -1.965 h 1.571 v -2.096 h -3.929 v 9.432 h 3.929 v -1.965 h -1.571 v -1.834 h 1.571 v -1.572 z m 5.502,5.371 0.654,-6.156 h 0.131 v 6.156 h 1.834 v -9.432 h -3.275 l -0.654,6.156 h -0.132 v -6.156 h -1.833 v 9.432 z m 3.275,0 h 4.453 l 0.917,-1.442 v -6.418 l -0.917,-1.572 H 186.5 Z m 2.357,-7.598 h 0.655 v 5.895 h -0.655 z"
           style="fill:#7f7d7d;fill-opacity:1;fill-rule:nonzero;stroke:none"
           id="path1590"
           inkscape:connector-curvature="0" /><path
           d="m 398.843,298.439 v 1.178 h -0.525 l -0.131,-0.131 v -1.441 l 0.131,-0.131 2.096,-0.393 0.654,-1.048 v -3.535 l -0.654,-1.18 h -3.799 l -0.655,1.18 v 2.095 h 2.227 v -1.31 l 0.131,-0.131 h 0.525 v 1.965 l -2.097,0.392 -0.786,1.049 v 3.273 l 0.655,1.049 h 3.93 l 0.523,-1.049 v -1.832 z m 5.239,-2.621 v -1.964 h 1.571 v -2.096 h -3.929 v 9.562 h 3.929 v -1.965 h -1.571 v -1.834 h 1.571 v -1.703 z m 4.454,-2.095 v -0.131 h 0.524 l 0.13,0.131 v 1.965 h 2.096 v -2.75 l -0.654,-1.18 h -3.668 l -0.655,1.18 v 7.333 l 0.523,1.049 h 3.931 l 0.523,-1.049 v -2.488 h -2.096 v 1.703 l -0.13,0.131 h -0.524 z m 3.406,7.597 h 2.488 v -7.728 h 0.525 v 7.728 h 2.487 v -8.382 l -0.785,-1.18 h -4.06 l -0.655,1.18 z m 6.157,0 h 4.585 l 0.654,-1.049 v -2.488 l -0.785,-1.049 v -0.13 l 0.785,-0.916 v -3.93 h -2.359 v 4.191 h -0.654 v -4.191 h -2.226 z m 2.226,-3.799 h 0.654 v 1.965 l -0.13,0.131 h -0.524 z m 6.026,-5.763 h -2.358 v 9.563 h 2.358 z m 1.835,7.597 h -1.18 v 1.965 h 4.716 v -1.965 h -1.18 v -7.597 h -2.356 z m 6.418,1.965 v -1.965 l 0.262,-2.488 0.13,-0.133 v 0.133 l 0.263,2.488 v 1.965 h 2.226 v -1.179 l -1.31,-5.764 v -2.619 h -2.487 v 2.619 l -1.311,5.764 v 1.179 z"
           style="fill:#4b072f;fill-opacity:1;fill-rule:nonzero;stroke:none"
           id="path1592"
           inkscape:connector-curvature="0" /><path
           d="m 393.733,166.789 h 9.562 v -2.359 h -9.562 z m 9.562,-6.289 -6.156,-0.654 -0.131,-0.131 h 6.287 v -1.965 h -9.562 v 3.406 l 6.158,0.655 h 0.13 l -0.13,0.13 h -6.158 v 1.834 h 9.562 z m -1.964,-4.584 v 1.18 h 1.964 v -4.717 h -1.964 v 1.18 h -7.598 v 2.357 z m -3.537,-6.418 h -1.965 v -1.572 h -2.096 v 3.799 h 9.562 v -3.799 h -1.964 v 1.572 h -1.834 v -1.572 h -1.703 z m 5.501,-2.228 v -4.715 l -1.048,-0.524 h -2.487 l -0.917,0.785 h -0.132 l -1.048,-0.785 h -3.93 v 2.358 h 4.323 v 0.654 h -4.323 v 2.227 z m -3.798,-2.881 h 2.096 v 0.654 h -2.096 z m -1.703,-5.371 h -1.965 v -1.573 h -2.096 v 3.93 h 9.562 v -3.93 h -1.964 v 1.573 h -1.834 v -1.573 h -1.703 z m 2.62,-5.11 h 1.048 l 0.131,0.131 v 0.525 h -1.702 l -0.394,-2.095 -1.048,-0.787 h -3.537 l -1.179,0.656 v 3.797 l 1.179,0.787 h 2.096 v -2.358 h -1.441 v -0.525 l 0.13,-0.131 h 1.704 l 0.131,0.131 0.524,2.096 0.917,0.787 h 3.274 l 1.048,-0.654 v -3.93 l -1.048,-0.656 h -1.833 z m 0.917,-4.06 v 1.179 h 1.964 v -4.716 h -1.964 v 1.179 h -7.598 v 2.358 z"
           style="fill:#7c0856;fill-opacity:1;fill-rule:nonzero;stroke:none"
           id="path1594"
           inkscape:connector-curvature="0" /><path
           d="m 210.995,517.855 -2.488,-0.262 2.488,-0.262 h 4.193 v -2.358 h -3.406 l -6.027,1.441 v 2.358 l 6.027,1.441 h 3.406 v -2.358 z m -5.24,-3.537 h 9.432 v -2.227 h -9.432 z m 1.965,-5.239 h -0.131 v -0.525 h 2.097 v -2.227 h -2.883 l -1.048,0.655 v 3.799 l 1.048,0.656 h 7.467 l 0.918,-0.656 v -3.799 l -0.918,-0.655 h -2.488 v 2.227 h 1.702 v 0.525 z m 5.502,-4.585 v 1.178 h 1.966 v -4.715 h -1.966 v 1.178 h -7.467 v 2.359 z m 1.048,-4.192 0.918,-0.656 v -4.061 l -0.918,-0.654 h -7.467 l -1.048,0.654 v 3.931 l 1.048,0.786 z m -6.55,-2.358 -0.131,-0.131 v -0.393 l 0.131,-0.131 h 5.764 v 0.655 z m 7.468,-3.669 v -4.584 l -0.918,-0.655 h -2.488 l -1.049,0.786 h -0.13 l -1.048,-0.786 h -3.8 v 2.358 h 4.192 v 0.654 h -4.192 v 2.227 z m -3.8,-2.227 v -0.523 l 0.132,-0.131 h 1.964 v 0.654 z m 3.8,-5.894 h -1.966 l -2.489,-0.262 v -0.131 l 2.489,-0.262 h 1.966 v -2.227 h -1.049 l -5.764,1.31 h -2.62 v 2.358 h 2.62 l 5.764,1.441 h 1.049 z"
           style="fill:#dbdada;fill-opacity:1;fill-rule:nonzero;stroke:none"
           id="path1596"
           inkscape:connector-curvature="0" /><path
           d="m 439.188,442.795 h -0.13 v -0.524 l 0.13,-0.131 h 3.013 v -2.358 h -4.978 v 1.834 l 0.525,0.393 v 0.131 l -0.525,0.393 v 1.965 l 1.048,0.654 h 7.467 l 0.917,-0.523 v -4.191 l -0.917,-0.656 h -2.489 v 2.358 h 1.703 l 0.131,0.131 v 0.524 z m 2.097,-5.895 h -1.966 v -1.572 h -2.096 v 3.799 h 9.432 v -3.799 h -1.835 v 1.572 h -1.833 v -1.572 h -1.702 z m 5.37,-5.502 -6.026,-0.654 -0.131,-0.131 h 6.157 v -1.965 h -9.432 v 3.405 l 6.158,0.655 h 0.131 l -0.131,0.131 h -6.158 v 1.834 h 9.432 z m -5.37,-5.633 h -1.966 v -1.571 h -2.096 v 3.799 h 9.432 v -3.799 h -1.835 v 1.571 h -1.833 v -1.571 h -1.702 z m 5.37,-2.226 v -4.585 l -0.917,-0.655 h -2.489 l -1.048,0.785 h -0.131 l -0.917,-0.785 h -3.93 v 2.358 h 4.193 v 0.654 h -4.193 v 2.228 z m -3.668,-2.228 v -0.654 h 1.965 l 0.131,0.131 v 0.523 z m -5.764,-8.776 v 2.227 h 1.835 v 0.655 h -1.835 v 2.227 h 3.537 l 5.895,-1.441 v -2.227 l -5.895,-1.441 z m 3.275,2.882 v -0.655 h 0.918 l 2.488,0.262 v 0.131 l -2.488,0.262 z m -1.179,-7.074 h -2.096 v 3.537 h 9.432 v -2.358 h -7.336 z"
           style="fill:#7b0855;fill-opacity:1;fill-rule:nonzero;stroke:none"
           id="path1598"
           inkscape:connector-curvature="0" /><path
           d="m 325.746,109.545 0.394,-6.027 h 0.131 l 0.393,6.027 h 3.145 v -9.434 h -1.965 v 5.633 h -0.131 l -0.787,-5.633 h -1.572 l -0.786,5.633 h -0.13 v -5.633 h -1.966 v 9.434 z m 9.956,-9.434 h -2.226 v 1.836 h -0.656 v -1.836 h -2.226 v 3.407 l 1.441,6.027 h 2.227 l 1.44,-6.027 z m -2.882,3.276 h 0.656 v 0.916 l -0.262,2.49 h -0.131 l -0.263,-2.49 z m 3.537,6.158 h 4.716 l 0.525,-0.918 v -2.488 l -0.786,-1.049 v -0.131 l 0.786,-1.047 v -3.801 h -2.359 v 4.192 h -0.654 v -4.192 h -2.228 z m 2.228,-3.801 h 0.654 v 2.096 h -0.654 z m 6.156,-3.668 v -0.129 h 0.525 v 3.143 h 2.488 v -4.979 h -1.834 l -0.394,0.526 h -0.13 l -0.393,-0.526 h -2.096 l -0.655,1.049 v 7.467 l 0.655,0.918 h 4.193 l 0.654,-0.918 v -2.488 h -2.488 v 1.701 h -0.525 z m 5.896,-1.965 h -2.228 v 9.434 h 2.228 z m 4.06,9.434 0.655,-6.027 v -0.131 l 0.13,0.131 v 6.027 h 1.835 v -9.434 h -3.275 l -0.655,6.159 h -0.263 v -6.159 h -1.833 v 9.434 z"
           style="fill:#21020d;fill-opacity:1;fill-rule:nonzero;stroke:none"
           id="path1600"
           inkscape:connector-curvature="0" /><path
           d="m 229.465,100.898 v -3.929 h -2.227 v 9.562 h 3.8 v -1.965 h -1.573 v -1.964 h 1.573 v -1.704 z m 4.454,0.131 v -1.965 h 1.572 v -2.095 h -3.799 v 9.562 h 3.799 v -1.965 h -1.572 v -1.834 h 1.572 v -1.703 z m 2.227,5.502 h 4.454 l 0.917,-1.572 v -6.287 l -1.048,-1.703 h -4.323 z m 2.358,-7.728 h 0.524 l 0.132,0.131 v 5.763 l -0.132,0.131 h -0.524 z m 5.895,2.226 v -1.965 h 1.572 v -2.095 h -3.799 v 9.562 h 3.799 v -1.965 h -1.572 v -1.834 h 1.572 v -1.703 z m 2.227,5.502 h 4.715 l 0.525,-1.049 v -2.488 l -0.786,-0.918 v -0.26 l 0.786,-0.918 v -3.929 h -2.358 v 4.191 h -0.655 v -4.191 h -2.227 z m 2.227,-3.799 h 0.655 v 2.096 h -0.655 z m 8.908,-5.763 h -2.227 v 1.834 h -0.656 v -1.834 h -2.227 v 3.537 l 1.31,6.025 h 2.358 l 1.442,-6.025 z m -2.883,3.273 h 0.656 v 0.918 l -0.393,2.488 v 0.131 -0.131 l -0.263,-2.488 z m 7.075,-1.178 v -2.095 h -3.537 v 9.562 h 2.357 v -7.467 z"
           style="fill:#737071;fill-opacity:1;fill-rule:nonzero;stroke:none"
           id="path1602"
           inkscape:connector-curvature="0" /><path
           d="m 431.983,344.549 v -3.93 h -2.226 v 9.432 h 3.799 v -1.965 h -1.573 v -1.834 h 1.573 v -1.703 z m 7.336,-3.93 h -2.227 v 1.834 h -0.654 v -1.834 h -2.227 v 3.406 l 1.44,6.026 h 2.228 l 1.44,-6.026 z m -2.881,3.276 h 0.654 v 0.916 l -0.261,2.488 h -0.132 l -0.261,-2.488 z m 7.074,-1.18 v -2.096 h -3.537 v 9.432 h 2.358 v -7.336 z m 3.536,4.584 v 1.049 h -0.524 v -1.573 l 2.096,-0.523 0.654,-0.918 v -3.668 l -0.654,-1.047 h -3.8 l -0.654,1.047 v 2.229 h 2.358 v -1.442 h 0.524 v 1.834 l -2.096,0.524 -0.786,1.046 v 3.276 l 0.654,0.918 h 3.931 l 0.523,-0.918 v -1.834 z m 5.24,-2.619 v -1.965 h 1.571 v -2.096 h -3.797 v 9.432 h 3.797 v -1.965 h -1.571 v -1.834 h 1.571 v -1.572 z m 5.764,-1.965 v -2.096 h -3.536 v 9.432 h 2.225 v -7.336 z m 2.882,7.336 v -1.965 l 0.261,-2.357 v -0.133 0.133 l 0.394,2.357 v 1.965 h 2.226 v -1.047 l -1.31,-5.766 v -2.619 h -2.489 v 2.619 l -1.309,5.766 v 1.047 z"
           style="fill:#d1d0d0;fill-opacity:1;fill-rule:nonzero;stroke:none"
           id="path1604"
           inkscape:connector-curvature="0" /><path
           d="m 402.903,308.656 h -2.358 v 1.834 h -0.524 v -1.834 h -2.358 v 3.407 l 1.441,6.025 h 2.358 l 1.441,-6.025 z m -2.882,3.274 h 0.524 v 0.918 l -0.262,2.488 -0.262,-2.488 z m 5.895,-1.44 h 0.654 v 3.145 h 2.359 v -4.979 h -1.834 l -0.394,0.393 h -0.131 l -0.392,-0.393 h -1.965 l -0.655,1.047 v 7.467 l 0.524,0.918 h 4.191 l 0.656,-0.918 v -2.619 h -2.359 v 1.834 h -0.654 z m 5.895,2.227 v -1.965 h 1.571 v -2.096 h -3.798 v 9.432 h 3.798 v -1.965 h -1.571 v -1.834 h 1.571 v -1.572 z m 5.502,5.371 0.654,-6.158 h 0.132 v 6.158 h 1.964 v -9.432 h -3.406 l -0.654,6.157 h -0.132 v -6.157 h -1.833 v 9.432 z m 5.631,-7.598 h 0.657 v 2.096 h 2.095 v -2.883 l -0.655,-1.047 h -3.668 l -0.655,1.047 v 7.467 l 0.524,0.918 h 3.93 l 0.524,-0.918 v -2.619 h -2.095 v 1.834 h -0.657 z m 5.633,7.598 v -1.965 l 0.394,-2.488 0.262,2.488 v 1.965 h 2.358 v -1.047 l -1.441,-5.766 v -2.619 h -2.358 v 2.619 l -1.441,5.766 v 1.047 z"
           style="fill:#7e0757;fill-opacity:1;fill-rule:nonzero;stroke:none"
           id="path1606"
           inkscape:connector-curvature="0" /><path
           d="m 151.262,388.693 h -1.965 v -1.572 h -2.096 v 3.799 h 9.562 v -3.799 h -1.964 v 1.572 h -1.834 v -1.572 h -1.703 z m -4.061,-4.584 v 2.358 h 3.275 l 1.571,-1.442 h 0.263 l 1.572,1.442 h 2.881 v -2.358 h -3.013 l -0.655,-0.523 h 3.668 v -2.227 h -2.881 l -1.572,1.309 h -0.263 l -1.571,-1.309 h -3.275 v 2.227 h 3.275 l 0.654,0.523 z m 9.562,-3.537 v -4.584 l -1.048,-0.656 h -4.322 l -0.917,0.785 v 2.229 h -3.275 v 2.226 z m -4.585,-2.883 h 2.883 v 0.656 h -2.883 z m 3.537,-3.011 1.048,-0.657 v -4.06 l -1.048,-0.523 h -7.335 l -1.179,0.654 v 3.929 l 1.179,0.657 z m -6.549,-2.358 h -0.131 v -0.525 h 6.026 v 0.525 z m 7.597,-3.537 v -4.717 l -1.048,-0.654 h -2.489 l -0.916,0.916 h -0.263 l -0.917,-0.916 h -3.929 v 2.488 h 4.192 v 0.524 h -4.192 v 2.359 z m -3.798,-2.883 h 2.096 v 0.523 h -2.096 z m 1.834,-4.322 v 1.18 h 1.964 v -4.717 h -1.964 v 1.18 h -7.598 v 2.357 z"
           style="fill:#20020c;fill-opacity:1;fill-rule:nonzero;stroke:none"
           id="path1608"
           inkscape:connector-curvature="0" /><path
           d="m 464.209,476.592 h 4.454 l 1.048,-1.572 v -6.288 l -1.048,-1.703 h -4.454 z m 2.356,-7.729 h 0.656 v 6.025 h -0.656 z m 3.8,6.681 0.525,1.048 h 4.06 l 0.654,-1.048 v -7.336 l -0.654,-1.179 h -3.93 l -0.655,1.179 z m 2.227,-6.55 0.132,-0.131 h 0.523 v 6.026 h -0.523 l -0.132,-0.132 z m 7.205,0.131 v -2.096 h -3.536 v 9.563 h 2.356 v -7.467 z m 4.192,0 v -2.096 h -3.537 v 9.563 h 2.359 v -7.467 z m 5.763,-2.096 h -2.227 v 1.834 h -0.654 v -1.834 h -2.227 v 3.537 l 1.441,6.026 h 2.357 l 1.31,-6.026 z m -2.881,3.274 h 0.654 v 0.918 l -0.261,2.488 v 0.131 l -0.131,-0.131 -0.262,-2.488 z m 3.537,6.289 h 4.715 l 0.655,-1.048 v -2.489 l -0.786,-1.048 v -0.131 l 0.786,-0.917 v -3.93 h -2.489 v 4.192 h -0.524 v -4.192 h -2.357 z m 2.357,-3.8 h 0.524 v 2.096 h -0.524 z"
           style="fill:#190106;fill-opacity:1;fill-rule:nonzero;stroke:none"
           id="path1610"
           inkscape:connector-curvature="0" /><path
           d="m 167.767,212.637 v -2.096 h -3.537 v 9.563 h 2.227 v -7.467 z m 2.881,1.965 v -1.965 h 1.573 v -2.096 h -3.8 v 9.563 h 3.8 v -1.965 h -1.573 v -1.834 h 1.573 v -1.703 z m 5.502,5.502 0.656,-6.157 v -0.131 l 0.131,0.131 v 6.157 h 1.834 v -9.563 h -3.275 l -0.656,6.156 -0.13,0.131 v -6.287 h -1.835 v 9.563 z m 3.275,0 h 4.454 l 0.917,-1.573 v -6.287 l -0.917,-1.703 h -4.454 z m 2.358,-7.729 h 0.656 v 6.025 h -0.656 z m 6.027,2.227 v -1.965 h 1.571 v -2.096 h -3.929 v 9.563 h 3.929 v -1.965 h -1.571 v -1.834 h 1.571 v -1.703 z m 2.227,5.502 h 4.584 l 0.655,-1.049 v -2.489 l -0.787,-0.918 v -0.128 l 0.787,-1.049 v -3.93 h -2.358 v 4.191 h -0.654 v -4.191 h -2.227 z m 2.227,-3.799 h 0.654 v 1.965 l -0.131,0.13 h -0.523 z"
           style="fill:#cdcccc;fill-opacity:1;fill-rule:nonzero;stroke:none"
           id="path1612"
           inkscape:connector-curvature="0" /><path
           d="m 137.376,379.654 h -2.096 v 3.537 h 9.563 v -2.357 h -7.467 z m 1.965,-2.881 h -1.965 v -1.572 H 135.28 V 379 h 9.563 v -3.799 h -1.965 v 1.572 h -1.835 v -1.572 h -1.702 z m 5.502,-2.226 v -4.455 l -1.572,-0.916 h -6.288 l -1.703,0.916 v 4.455 z m -7.729,-3.014 h 6.026 v 0.654 h -6.026 z m 0.131,-5.502 h -0.131 v -0.523 l 0.131,-0.131 h 3.013 v -2.359 h -4.978 v 1.836 l 0.524,0.392 v 0.131 l -0.524,0.393 v 1.964 l 1.179,0.786 h 7.336 l 1.048,-0.655 v -4.191 l -1.048,-0.656 h -2.489 v 2.359 h 1.703 l 0.132,0.131 v 0.523 z m 2.096,-5.894 h -1.965 v -1.573 h -2.096 v 3.799 h 9.563 v -3.799 h -1.965 v 1.573 h -1.835 v -1.573 h -1.702 z m 5.502,-2.227 v -4.586 l -1.048,-0.654 h -2.489 l -1.048,0.785 h -0.131 l -0.917,-0.785 h -3.93 v 2.359 h 4.192 v 0.655 h -4.192 v 2.226 z m -3.8,-2.226 v -0.655 h 1.966 l 0.132,0.131 v 0.524 z"
           style="fill:#777575;fill-opacity:1;fill-rule:nonzero;stroke:none"
           id="path1614"
           inkscape:connector-curvature="0" /><path
           d="m 408.667,165.348 h -2.097 v 3.537 h 9.433 v -2.36 h -7.336 z m 1.965,-3.014 h -1.965 v -1.57 h -2.097 v 3.929 h 9.433 v -3.929 h -1.965 v 1.57 h -1.835 v -1.57 h -1.571 z m 3.406,-3.406 v 1.31 h 1.965 v -4.845 h -1.965 v 1.308 h -7.468 v 2.227 z m 0,-5.369 v 1.177 h 1.965 v -4.715 h -1.965 v 1.178 h -7.468 v 2.36 z m -3.406,-6.551 h -1.965 v -1.44 h -2.097 v 3.797 h 9.433 v -3.797 h -1.965 v 1.44 h -1.835 v -1.44 h -1.571 z m 5.371,-2.096 v -4.715 l -0.917,-0.656 h -2.489 l -1.048,0.918 h -0.131 l -1.049,-0.918 h -3.799 v 2.49 h 4.193 v 0.524 h -4.193 v 2.357 z m -3.8,-2.881 h 2.096 v 0.523 h -2.096 z"
           style="fill:#4d0730;fill-opacity:1;fill-rule:nonzero;stroke:none"
           id="path1616"
           inkscape:connector-curvature="0" /><path
           d="m 378.538,702.558 -0.132,-0.131 v -0.525 h 3.145 v -2.358 h -4.978 v 1.835 l 0.524,0.392 -0.524,0.394 v 2.095 l 1.179,0.655 h 7.336 l 1.048,-0.655 v -4.191 l -1.048,-0.525 h -2.489 v 2.358 h 1.833 v 0.525 l -0.13,0.131 z m 2.096,-6.026 h -4.061 v 2.358 h 9.563 v -2.358 h -3.8 v -0.655 h 3.8 v -2.358 h -9.563 v 2.358 h 4.061 z m 4.454,-3.669 1.048,-0.523 v -4.06 l -1.048,-0.656 h -7.336 l -1.179,0.656 v 3.929 l 1.179,0.654 z m -6.55,-2.357 h -0.132 v -0.524 h 6.026 v 0.524 z m 4.715,-6.418 h 1.179 v 0.523 l -0.13,0.131 h -1.442 l -0.131,-0.131 -0.393,-2.095 -1.047,-0.655 h -3.537 l -1.179,0.655 v 3.798 l 1.179,0.655 h 2.096 v -2.227 h -1.31 l -0.132,-0.131 v -0.523 h 1.965 l 0.394,2.096 1.048,0.785 h 3.275 l 1.048,-0.655 v -3.93 l -1.048,-0.523 h -1.835 z m 0.917,-4.193 v 1.31 h 1.966 v -4.846 h -1.966 v 1.179 h -7.597 v 2.357 z"
           style="fill:#1b0107;fill-opacity:1;fill-rule:nonzero;stroke:none"
           id="path1618"
           inkscape:connector-curvature="0" /><path
           d="m 171.435,155.393 h 0.655 v 3.011 h 2.358 v -4.845 h -1.834 l -0.393,0.392 h -0.131 l -0.394,-0.392 h -1.965 l -0.654,1.046 v 7.469 l 0.524,0.916 h 4.191 l 0.656,-0.916 v -2.621 h -2.358 v 1.834 h -0.655 z m 3.668,7.597 h 4.715 l 0.524,-0.916 v -2.49 l -0.786,-1.047 v -0.133 l 0.786,-1.047 v -3.798 h -2.357 v 4.191 h -0.656 v -4.191 h -2.226 z m 2.226,-3.799 h 0.656 v 2.096 h -0.656 z m 8.908,-5.632 h -2.358 v 1.834 h -0.524 v -1.834 h -2.357 v 3.404 l 1.441,6.027 h 2.357 l 1.441,-6.027 z m -2.882,3.273 h 0.524 v 0.918 l -0.262,2.488 -0.262,-2.488 z m 3.537,6.158 h 4.454 l 0.918,-1.441 v -6.418 l -1.05,-1.572 h -4.322 z m 2.358,-7.597 h 0.655 v 5.895 h -0.655 z m 5.895,2.226 v -1.965 h 1.571 v -2.095 h -3.798 v 9.431 h 3.798 v -1.967 h -1.571 v -1.832 h 1.571 v -1.572 z"
           style="fill:#d2d2d2;fill-opacity:1;fill-rule:nonzero;stroke:none"
           id="path1620"
           inkscape:connector-curvature="0" /><path
           d="m 165.802,263.855 v -0.13 h 0.524 v 2.095 h 2.227 v -2.881 l -0.655,-1.048 h -3.668 l -0.786,1.048 v 7.465 l 0.655,0.918 h 3.93 l 0.524,-0.918 v -2.486 h -2.227 v 1.832 h -0.524 z m 5.763,2.096 v -4.06 h -2.357 v 9.431 h 2.357 v -3.668 h 0.656 v 3.668 h 2.227 v -9.431 h -2.227 v 4.06 z m 5.895,0 v -1.965 h 1.573 v -2.095 h -3.8 v 9.431 h 3.8 v -1.834 h -1.573 v -1.834 h 1.573 v -1.703 z m 7.336,-4.06 h -2.227 v 1.834 h -0.654 v -1.834 h -2.227 v 3.537 l 1.441,5.894 h 2.226 l 1.441,-5.894 z m -2.881,3.275 h 0.654 v 0.916 l -0.261,2.49 h -0.131 l -0.262,-2.49 z m 3.537,6.156 h 4.715 l 0.524,-0.918 v -4.322 l -0.654,-0.916 h -2.227 v -3.275 h -2.358 z m 2.358,-4.453 h 0.654 v 2.75 l -0.131,0.131 h -0.523 z"
           style="fill:#d7d6d6;fill-opacity:1;fill-rule:nonzero;stroke:none"
           id="path1622"
           inkscape:connector-curvature="0" /><path
           d="m 83.144,677.145 v -0.131 h 0.524 l 0.131,0.131 v 1.964 h 2.096 v -2.75 l -0.654,-1.179 h -3.669 l -0.654,1.179 v 7.467 l 0.523,0.916 h 3.93 l 0.524,-0.916 v -2.621 h -2.096 v 1.704 l -0.131,0.13 h -0.524 z m 5.764,2.096 V 675.18 H 86.55 v 9.562 h 2.358 v -3.799 h 0.655 v 3.799 h 2.357 v -9.562 h -2.357 v 4.061 z m 5.895,0 v -1.965 h 1.572 v -2.096 h -3.799 v 9.562 h 3.799 v -1.964 h -1.572 v -1.835 h 1.572 v -1.702 z m 4.454,-2.096 0.131,-0.131 h 0.392 l 0.132,0.131 v 1.964 h 2.227 v -2.75 l -0.786,-1.179 h -3.668 l -0.655,1.179 v 7.467 l 0.523,0.916 h 3.931 l 0.655,-0.916 v -2.621 h -2.227 v 1.704 l -0.132,0.13 h -0.392 l -0.131,-0.13 z m 5.763,2.358 v -4.323 h -2.227 v 9.562 h 2.227 v -3.929 l 0.656,0.786 v 3.143 h 2.226 v -2.751 l -1.441,-1.702 v -0.132 l 1.441,-1.702 v -3.275 h -2.226 v 3.536 z"
           style="fill:#4b072e;fill-opacity:1;fill-rule:nonzero;stroke:none"
           id="path1624"
           inkscape:connector-curvature="0" /><path
           d="m 182.569,60.945 h 4.716 l 0.525,-0.918 v -4.322 l -0.656,-0.916 h -2.227 v -3.275 h -2.358 z m 2.358,-4.455 h 0.656 v 2.752 h -0.656 z m 3.537,4.455 h 4.716 l 0.655,-0.918 v -2.488 l -0.786,-1.049 v -0.131 l 0.786,-1.046 v -3.799 h -2.489 v 4.191 h -0.524 v -4.191 h -2.358 z m 2.358,-3.799 h 0.523 v 2.096 h -0.523 z m 6.026,-5.632 h -2.358 v 9.432 h 2.358 z m 3.93,9.431 0.261,-6.025 h 0.131 l 0.393,6.025 h 3.275 v -9.431 h -1.964 v 5.502 l -0.131,0.13 v -0.13 l -0.786,-5.502 h -1.572 l -0.786,5.502 v 0.13 l -0.131,-0.13 v -5.502 h -1.965 v 9.431 z m 7.073,-5.371 v -1.965 h 1.572 v -2.095 h -3.93 v 9.431 h 3.93 V 58.98 h -1.572 v -1.834 h 1.572 v -1.572 z"
           style="fill:#180104;fill-opacity:1;fill-rule:nonzero;stroke:none"
           id="path1626"
           inkscape:connector-curvature="0" /><path
           d="m 117.989,544.84 v -4.716 l -0.918,-0.655 h -4.322 l -0.917,0.786 v 2.227 h -3.275 v 2.358 z m -4.453,-3.013 h 2.75 v 0.655 h -2.75 z m 3.535,-3.013 0.918,-0.524 v -4.061 l -0.918,-0.655 h -7.466 l -1.048,0.655 v 3.93 l 1.048,0.655 z m -6.549,-2.227 -0.13,-0.13 v -0.525 h 5.894 v 0.655 z m -1.965,-3.668 h 9.432 v -2.358 h -9.432 z m 9.432,-6.287 -6.026,-0.656 -0.131,-0.131 h 6.157 v -1.833 h -9.432 v 3.275 l 6.157,0.655 v 0.13 h -6.157 v 1.835 h 9.432 z m -1.966,-4.454 v 1.179 h 1.966 v -4.847 h -1.966 v 1.31 h -7.466 v 2.358 z"
           style="fill:#cdcccc;fill-opacity:1;fill-rule:nonzero;stroke:none"
           id="path1628"
           inkscape:connector-curvature="0" /><path
           d="m 148.641,674.393 v -4.454 l -1.44,-0.917 h -6.419 l -1.572,1.048 v 4.323 z m -7.598,-3.012 h 5.895 v 0.655 h -5.895 z m 2.228,-5.24 h -1.965 v -1.572 h -2.096 v 3.799 h 9.431 v -3.799 h -1.965 v 1.572 h -1.833 v -1.572 h -1.572 z m 5.37,-2.227 v -4.716 l -0.916,-0.524 h -2.882 l -0.655,0.393 h -0.131 l -0.656,-0.393 h -3.143 l -1.048,0.655 v 4.585 z m -5.24,-2.227 h -2.358 v -0.654 h 2.358 z m 1.442,-0.654 h 2.096 v 0.654 h -2.096 z m -5.633,-3.144 h 9.431 v -2.227 h -9.431 z m 7.466,-4.062 v 1.179 h 1.965 v -4.846 h -1.965 v 1.309 h -7.466 v 2.358 z"
           style="fill:#787676;fill-opacity:1;fill-rule:nonzero;stroke:none"
           id="path1630"
           inkscape:connector-curvature="0" /><path
           d="m 229.989,525.976 0.655,0.918 h 4.062 l 0.523,-0.918 v -7.466 l -0.654,-1.048 h -3.931 l -0.655,1.048 z m 2.359,-6.681 v -0.129 h 0.523 v 6.024 h -0.523 z m 3.537,7.599 h 4.715 l 0.655,-0.918 v -4.323 l -0.786,-1.048 h -2.227 v -3.143 h -2.357 z m 2.357,-4.585 h 0.524 l 0.131,0.131 v 2.62 l -0.131,0.13 h -0.524 z m 5.895,-0.917 v -1.966 h 1.572 v -1.964 h -3.799 v 9.432 h 3.799 v -1.966 h -1.572 v -1.833 h 1.572 v -1.703 z m 5.502,5.502 0.654,-6.157 0.131,-0.132 v 6.289 h 1.835 v -9.432 h -3.275 l -0.655,6.026 -0.132,0.131 v -6.157 h -1.833 v 9.432 z"
           style="fill:#4a072d;fill-opacity:1;fill-rule:nonzero;stroke:none"
           id="path1632"
           inkscape:connector-curvature="0" /><path
           d="m 401.331,283.113 v -1.967 h 1.572 v -2.095 h -3.799 v 9.431 h 3.799 v -1.964 h -1.572 v -1.834 h 1.572 v -1.571 z m 7.336,-4.062 h -2.227 v 1.834 h -0.656 v -1.834 h -2.226 v 3.406 l 1.441,6.025 h 2.227 l 1.441,-6.025 z m -2.883,3.144 h 0.656 v 1.047 l -0.262,2.358 v 0.132 l -0.131,-0.132 -0.263,-2.358 z m 6.419,3.405 v 1.179 h -0.523 l -0.131,-0.131 v -1.439 h 0.131 l 2.095,-0.525 0.655,-1.047 V 280.1 l -0.655,-1.049 h -3.798 l -0.656,1.049 v 2.095 h 2.228 v -1.31 h 0.654 v 1.834 l -2.096,0.523 -0.786,0.918 v 3.406 l 0.656,0.916 h 3.929 l 0.524,-0.916 V 285.6 Z m 5.239,2.882 v -1.964 l 0.263,-2.489 0.262,2.489 v 1.964 h 2.358 v -1.046 l -1.441,-5.764 v -2.621 h -2.358 v 2.621 l -1.309,5.764 v 1.046 z"
           style="fill:#280313;fill-opacity:1;fill-rule:nonzero;stroke:none"
           id="path1634"
           inkscape:connector-curvature="0" /><path
           d="m 396.223,270.93 h 4.715 l 0.524,-0.916 v -2.621 l -0.786,-0.916 v -0.133 l 0.786,-1.047 v -3.799 h -2.358 v 4.191 h -0.524 v -4.191 h -2.357 z m 2.357,-3.799 h 0.523 v 2.096 h -0.523 z m 8.777,-5.633 h -2.227 v 1.703 h -0.655 v -1.703 h -2.228 v 3.406 l 1.311,6.026 h 2.358 l 1.441,-6.026 z m -2.882,3.145 h 0.655 v 1.046 l -0.262,2.358 -0.132,0.131 v -0.131 l -0.261,-2.358 z m 4.715,4.322 h -1.178 v 1.965 h 4.716 v -1.965 h -1.179 v -7.467 h -2.359 z m 6.55,-3.406 v -1.965 h 1.442 v -2.096 h -3.8 v 9.432 h 3.8 v -1.965 h -1.442 v -1.834 h 1.442 v -1.572 z"
           style="fill:#807e7e;fill-opacity:1;fill-rule:nonzero;stroke:none"
           id="path1636"
           inkscape:connector-curvature="0" /><path
           d="m 259.332,632.213 h -4.191 v 2.227 h 9.431 v -2.227 h -3.929 v -0.131 l 0.785,-0.523 h 3.144 v -2.227 h -2.751 l -1.703,1.44 h -0.131 l -1.703,-1.44 h -3.143 v 2.227 h 3.405 l 0.786,0.523 z m -4.191,-3.537 h 9.431 v -2.358 h -9.431 z m 7.466,-4.192 v 1.18 h 1.965 v -4.717 h -1.965 v 1.179 h -7.466 v 2.358 z m -3.406,-6.549 h -1.965 v -1.572 h -2.095 v 3.93 h 9.431 v -3.93 h -1.965 v 1.572 h -1.834 v -1.572 h -1.572 z"
           style="fill:#760853;fill-opacity:1;fill-rule:nonzero;stroke:none"
           id="path1638"
           inkscape:connector-curvature="0" /><path
           d="m 368.058,700.069 v -4.585 l -0.917,-0.655 h -4.322 l -1.049,0.655 v 2.227 h -3.144 v 2.358 z m -4.584,-2.358 v -0.523 l 0.13,-0.132 h 2.751 v 0.655 z m -4.848,-8.646 v 2.227 h 1.835 v 0.523 h -1.835 v 2.359 h 3.406 l 6.026,-1.441 v -2.358 l -6.026,-1.31 z m 3.144,2.75 v -0.523 h 1.049 l 2.488,0.262 -2.488,0.261 z m 6.288,-5.762 h -1.964 l -2.49,-0.262 2.49,-0.263 h 1.964 v -2.358 h -1.047 l -5.766,1.441 h -2.619 v 2.358 h 2.619 l 5.766,1.311 h 1.047 z"
           style="fill:#747172;fill-opacity:1;fill-rule:nonzero;stroke:none"
           id="path1640"
           inkscape:connector-curvature="0" /></g></g></g></svg>